<svg id="Layer_1" data-name="Layer 1" xmlns="http://www.w3.org/2000/svg" viewBox="0 0 225.71 250.01"><defs><style>.cls-1{fill:#083e44;}.cls-2{fill:#045866;}.cls-3{fill:#f9c388;}.cls-4{fill:#dbad7f;}.cls-5{fill:#444343;}.cls-6{fill:#f9d4b2;}.cls-7{fill:#f4f4f4;}.cls-8{fill:#af2409;}.cls-9{fill:#1c737c;}.cls-10{fill:#fefefe;}</style></defs><title>add (ecris)</title><g id="admin"><path class="cls-1" d="M486.91,282.14c-9.36,9.2-25.68,14.83-42.25,18.27-4.67,1-9.35,1.77-13.91,2.42-10,1.43-19.29,2.18-26.45,2.57-2.67.15-5,.25-7,.31a.21.21,0,0,1-.08,0H397l-6.28.12h-.14c-48.72,1.81-81.28-25.68-81.28-25.68-.51-13.33,17.85-56.11,17.85-56.11,2.37-2.8,38.53-12.82,38.53-12.82h.1l9.77-.31.69,0,14.11-.44,15.88-.5,12.92-.41,1.39,0,6.72-.21.16.06,41.27,14.52c2.2,1.69,6.05,13.46,9.64,26,1.34,4.63,2.63,9.37,3.79,13.73C484.91,273.89,486.91,282.14,486.91,282.14Z" transform="translate(-309.33 -103)"/><path class="cls-2" d="M397,305.84l0-.12-6.28.12h-.06C389.26,305,358.9,238,358.9,238c-3.21-5.92,7.07-11.19,7.07-11.19l-5.94-8c-.91-1.48,2.1-4.57,5.79-7.59,4.09-3.36,9-6.63,10.38-7.52l.36-.23a29.34,29.34,0,0,0-.28,7.42c.34,7.86,1.76,18.41,1.76,18.41a4.69,4.69,0,0,0-.19.76s0,0,0,0c-1,5.8,3.56,24,8.53,41l0,.09c4.6,15.82,9.53,30.7,10.63,34l.09.28h0l.08.24,0,.13Z" transform="translate(-309.33 -103)"/><path id="ears" class="cls-3" d="M367.37,153.05s-9.33-3.9-4.37,6.83c0,0,3.26,10.69,5.81,11l3.4-.1s-2.88-13.82-2.88-14.69S368,154.22,367.37,153.05Z" transform="translate(-309.33 -103)"/><path id="ears-2" data-name="ears" class="cls-3" d="M427.12,153.53s8.39-3.9,3.93,6.83c0,0-2.93,10.69-5.23,11l-3.06-.1s2.59-13.82,2.59-14.69S426.52,154.69,427.12,153.53Z" transform="translate(-309.33 -103)"/><polygon class="cls-4" points="69.25 83.62 69.25 94.51 88.84 115.99 108.34 94.26 108.34 80.52 69.25 80.52 69.25 83.62"/><path id="hair" class="cls-5" d="M421,114.13s5.3-2.15,8.69,1.64c0,0,9.08,6.1,2.55,25.67,0,0-2.81,12.34-5.91,14.23,0,0,.29-22.68-8.71-21.91Z" transform="translate(-309.33 -103)"/><path id="hair-2" data-name="hair" class="cls-5" d="M368.47,155.67s-6-16.29-5.6-19.87c0,0-4.08-27.15,14.15-30.86,0,0,25.74-6.42,42.56,4.07,0,0,1.78.74,1.53,3.83,0,0-1,20.37-3.45,20.92,0,0-2.25-.26-5.77,2.74,0,0-15.63,8.64-28.89-1.15,0,0-12-4.27-14.3,5Z" transform="translate(-309.33 -103)"/><path class="cls-3" d="M428.74,152.36" transform="translate(-309.33 -103)"/><path class="cls-6" d="M423.79,171.22c-5.94,17-17,23.53-17,23.53-9.18,7.9-19.88-.82-19.88-.82-10.7-6.59-15.63-19.09-15.63-19.09-3.57-7.08-2.72-33.91-2.72-33.91,2-10,14.45-5.59,14.45-5.59,12.92,10,28.88,1.15,28.88,1.15,9.52-8.39,13.09,5.1,13.09,5.1C428.71,153.28,423.79,171.22,423.79,171.22Z" transform="translate(-309.33 -103)"/><path id="colar" class="cls-7" d="M378.58,197.51s-6.72,6.79,0,35.92c0,0,19.21-16,19.59-14.44Z" transform="translate(-309.33 -103)"/><path class="cls-2" d="M437.5,238.2s-29,60.46-33.2,67.2c-2.67.15-5,.25-7,.31l0,.13H397l0-.12c0-.07.05-.15.09-.25h0c.5-1.41,1.92-5.45,3.8-11l.19-.58c2.14-6.35,4.84-14.55,7.43-23,4.48-14.57,8.63-29.85,9-37.52a10.47,10.47,0,0,0-.33-3.9s1.7-12,1.93-19.92a22.57,22.57,0,0,0-.36-5.91l1.36.85c1.61,1,4.43,2.82,7.27,4.87,5,3.56,10,7.81,8.85,9.63L430,227S440.9,232.28,437.5,238.2Z" transform="translate(-309.33 -103)"/><path class="cls-8" d="M389.21,224.84l5.26,7.44h7l6.54-7.44s-8-6.5-9.81-5.85C398.17,219,398.82,217.1,389.21,224.84Z" transform="translate(-309.33 -103)"/><path id="colar1" class="cls-7" d="M417.67,197.26s6.62,6.29,0,36.16c0,0-16.05-14.81-19.49-14.44Z" transform="translate(-309.33 -103)"/><polygon class="cls-8" points="99.22 167.89 91.79 190.87 91.6 191.45 87.96 202.71 87.92 202.84 87.88 202.71 87.8 202.47 87.8 202.46 77.08 168.21 77.05 168.12 85.14 129.28 92.11 129.28 99.22 167.89"/></g><path class="cls-9" d="M483.12,353A52.18,52.18,0,1,1,535,298.4,52,52,0,0,1,483.12,353Z" transform="translate(-309.33 -103)"/><path class="cls-10" d="M505.83,311.94c-3.2,0-6.4.11-9.59,0-1.8-.09-2.2.52-2.17,2.22.1,6,0,12,0,18.06,0,5.23-2,7.22-7.1,7.25-2.82,0-5.65,0-8.47,0-4.26-.07-6.4-2.18-6.44-6.47-.06-6.12-.14-12.23,0-18.34.07-2.33-.71-2.77-2.83-2.72-6,.14-12,.07-18.06,0-4.54,0-6.45-1.93-6.54-6.52-.06-3-.07-6,0-9,.1-4.22,2-6.2,6.27-6.25,6.21-.08,12.42-.09,18.63,0,1.92,0,2.58-.41,2.53-2.45-.14-6-.07-12,0-18.06,0-4.84,2-6.94,6.77-7q4.23-.07,8.47,0c4.74.08,6.76,2.18,6.78,7,0,6,.1,12,0,18.06,0,2.06.63,2.48,2.54,2.44,5.93-.12,11.85-.06,17.78,0,5.19,0,7.06,1.91,7.11,7.15,0,2.73.06,5.46,0,8.19-.12,4.52-2.11,6.45-6.61,6.48C511.86,312,508.85,311.94,505.83,311.94Z" transform="translate(-309.33 -103)"/></svg>