<svg id="Layer_1" data-name="Layer 1" xmlns="http://www.w3.org/2000/svg" viewBox="0 0 385.77 366.34"><defs><style>.cls-1{fill:#26a69a;}.cls-2{fill:none;stroke:#26a69a;stroke-miterlimit:10;stroke-width:12px;}</style></defs><title>cashier(ecris)</title><path class="cls-1" d="M245.72,287.77l26.15,46.39v5.37h-69.8V284.9h38.75A5.6,5.6,0,0,1,245.72,287.77Z" transform="translate(-11.31 -5.14)"/><path class="cls-1" d="M397.08,213.71v91.17c0,22.66-17.64,41-39.41,41H287.75a5.86,5.86,0,0,1-5.74-6h0a10.33,10.33,0,0,0-1.85-6.44l-28.82-52.67a8.37,8.37,0,0,0-7.74-4.56H204a5.86,5.86,0,0,1-5.74-6V213.71c0-33.14,23.36-61.11,54.63-65.93a5.72,5.72,0,0,1,3.93.83,73.48,73.48,0,0,0,79.09-.31,5.53,5.53,0,0,1,3.53-.9C372,150.77,397.07,179.37,397.08,213.71Z" transform="translate(-11.31 -5.14)"/><path class="cls-1" d="M271.87,334.14H11.31L40,284.91H240.82a5.6,5.6,0,0,1,4.9,2.84Z" transform="translate(-11.31 -5.14)"/><rect class="cls-1" x="0.96" y="352.39" width="260.55" height="13.95"/><rect class="cls-1" y="329" width="260.56" height="15.76"/><rect class="cls-1" x="55.07" y="232.9" width="30" height="47.75"/><rect class="cls-2" x="12.72" y="183.14" width="154.49" height="38.06"/><path class="cls-1" d="M142.54,224.68" transform="translate(-11.31 -5.14)"/><circle class="cls-1" cx="284.34" cy="71.15" r="71.15"/></svg>