<?xml version="1.0" encoding="utf-8"?>
<!-- Generator: Adobe Illustrator 21.1.0, SVG Export Plug-In . SVG Version: 6.00 Build 0)  -->
<svg version="1.1" id="Layer_1" xmlns="http://www.w3.org/2000/svg" xmlns:xlink="http://www.w3.org/1999/xlink" x="0px" y="0px"
	 viewBox="0 0 398 381.6" style="enable-background:new 0 0 398 381.6;" xml:space="preserve">
<style type="text/css">
	.st0{fill:none;stroke:#FFFFFF;stroke-width:14;stroke-miterlimit:10;}
	.st1{fill:none;stroke:#FFFFFF;stroke-width:12;stroke-miterlimit:10;}
	.st2{fill:#FFFFFF;}
	.st3{fill:#26A69A;}
	.st4{display:none;}
	.st5{display:inline;fill:#26A69A;}
	.st6{display:inline;fill:none;stroke:#26A69A;stroke-width:12;stroke-miterlimit:10;}
</style>
<title>cashier(ecris)</title>
<path class="st0" d="M388.5,223.2v82c0,20.4-16.5,36.9-36.9,36.9h-56.2c-3,0-43.3-74.9-43.3-74.9c-1.4-2.6-4.2-4.2-7.2-4.1h-37.1
	c-3,0-5.4-2.4-5.4-5.4v-34.5c0-29.8,21.9-54.9,51.1-59.3c1.3-0.2,2.6,0.1,3.7,0.7c22.8,13.8,51.3,13.6,74-0.3c1-0.6,2.1-0.9,3.3-0.8
	C365.1,166.6,388.5,192.3,388.5,223.2z"/>
<path class="st1" d="M258.5,336.6l-0.1,13.6H13.2v-13.6l27-49.2h189.1c1.9,0,3.7,1.1,4.6,2.8L258.5,336.6z"/>
<rect x="7.5" y="361.5" class="st2" width="258" height="13.9"/>
<rect x="68.2" y="240.5" class="st2" width="30" height="47.7"/>
<rect x="25.9" y="190.8" class="st1" width="154.5" height="38.1"/>
<path class="st3" d="M144.4,227.2"/>
<circle class="st0" cx="294.5" cy="78.8" r="71.1"/>
<g class="st4">
	<path class="st5" d="M163.7,512.7l26.2,46.4v5.4h-69.8v-54.6h38.8C160.9,509.9,162.7,511,163.7,512.7z"/>
	<path class="st5" d="M304.7,445.7v82c0,20.4-16.5,36.9-36.9,36.9h-65.4c-3,0-5.4-2.4-5.4-5.4l0,0c0.1-2.1-0.5-4.1-1.7-5.8l-27-47.3
		c-1.4-2.6-4.2-4.2-7.2-4.1H124c-3,0-5.4-2.4-5.4-5.4v-50.9c0-29.8,21.9-54.9,51.1-59.3c1.3-0.2,2.6,0.1,3.7,0.7
		c22.8,13.8,51.3,13.6,74-0.3c1-0.6,2.1-0.9,3.3-0.8C281.2,389.1,304.7,414.8,304.7,445.7z"/>
	<path class="st5" d="M189.9,559.1H-70.7l28.7-49.2h200.9c2,0,3.9,1.1,4.9,2.8L189.9,559.1z"/>
	<rect x="-69.7" y="582.5" class="st5" width="260.5" height="13.9"/>
	<rect x="-70.7" y="559.1" class="st5" width="260.6" height="15.8"/>
	<rect x="-15.6" y="463" class="st5" width="30" height="47.7"/>
	<rect x="-58" y="413.3" class="st6" width="154.5" height="38.1"/>
	<path class="st5" d="M60.5,449.7"/>
	<circle class="st5" cx="211.6" cy="306.3" r="71.1"/>
</g>
</svg>
