<svg id="Layer_1" data-name="Layer 1" xmlns="http://www.w3.org/2000/svg" viewBox="0 0 464.25 390.62"><defs><style>.cls-1{fill:#f4f4f4;}.cls-1,.cls-10,.cls-13,.cls-14,.cls-15,.cls-16,.cls-2,.cls-3,.cls-4,.cls-5,.cls-6,.cls-8,.cls-9{stroke:#000;stroke-miterlimit:10;}.cls-1,.cls-2{stroke-width:6px;}.cls-10,.cls-2{fill:#099faf;}.cls-3{fill:#d1d1d1;stroke-width:5px;opacity:0.76;}.cls-4{fill:#1c3a84;}.cls-5{fill:#c68939;}.cls-6{fill:#1fe874;}.cls-7{fill:#77d8d5;}.cls-8,.cls-9{fill:none;}.cls-8{stroke-width:2px;}.cls-10{stroke-width:0.5px;}.cls-10,.cls-11,.cls-13,.cls-14,.cls-15,.cls-16{opacity:0.5;}.cls-11{fill:#2867ce;}.cls-12{fill:#b5b5b5;opacity:0.75;}.cls-13{fill:#ff2e4b;}.cls-13,.cls-14,.cls-15,.cls-16{stroke-width:0.25px;}.cls-14{fill:#cfff45;}.cls-15{fill:#0b00ff;}.cls-16{fill:#0076d0;}</style></defs><title>dashboard(ecris)</title><rect class="cls-1" x="3" y="3" width="458.24" height="384.62" rx="12" ry="12"/><path class="cls-2" d="M181.32,169.67H639.56V132.44s.77-12-15.23-12h-431s-12,2.11-12,12Z" transform="translate(-178.32 -117.44)"/><rect class="cls-3" x="3" y="52.23" width="458.24" height="25.33"/><rect class="cls-4" x="22.18" y="20.18" width="25" height="3.08"/><rect class="cls-5" x="22.18" y="26.16" width="25" height="3.08"/><rect class="cls-6" x="22.18" y="31.96" width="25" height="3.08"/><path class="cls-7" d="M503,223.76v42.48H608s12-.43,12-12V235.76s-.67-10.24-12-12Z" transform="translate(-178.32 -117.44)"/><rect class="cls-8" x="22.18" y="106.32" width="419.5" height="42.48" rx="12" ry="12"/><rect class="cls-9" x="22.68" y="175.56" width="202" height="192" rx="12" ry="12"/><path class="cls-10" d="M524,293V485H442.25s-21.5,3-19.25-17.5V305s.25-12,12-12Z" transform="translate(-178.32 -117.44)"/><rect class="cls-9" x="244.68" y="175.56" width="202" height="192" rx="12" ry="12"/><polygon class="cls-11" points="268.12 263.56 281.86 282.89 329.68 253.38 324.59 244.23 284.4 269.67 275.24 256.95 268.12 263.56"/><rect class="cls-12" x="354.68" y="218.56" width="80.67" height="12.67"/><rect class="cls-12" x="354.68" y="257.23" width="68" height="12.67"/><rect class="cls-12" x="354.35" y="294.89" width="80.67" height="12.67"/><rect class="cls-13" x="77.68" y="255.23" width="29.33" height="77.33"/><rect class="cls-14" x="119.01" y="229.89" width="31.33" height="102.67"/><rect class="cls-15" x="160.35" y="200.31" width="32.67" height="132.25"/><rect class="cls-16" x="38.68" y="281.23" width="28" height="51.33"/></svg>