<svg id="Layer_1" data-name="Layer 1" xmlns="http://www.w3.org/2000/svg" viewBox="0 0 329.25 450.33"><defs><style>.cls-1{stroke:#000;stroke-miterlimit:10;}.cls-2{fill:#fff;}</style></defs><title>earnings (ecris)</title><path class="cls-1" d="M273.58,222.66v268H333V310.33l94.5-.33S533,308.32,552,222.66c0,0,20.5-83-18.5-132.16,0,0-27-45.82-115.5-49.16H273.58Z" transform="translate(-249.75 -40.84)"/><path class="cls-2" d="M332,90.5v37H484s-16.5-35.5-65.5-37Z" transform="translate(-249.75 -40.84)"/><rect class="cls-2" x="82.25" y="121.16" width="162.5" height="26.5"/><path class="cls-2" d="M332,222.5v38h81.71S463,263,484,222.5Z" transform="translate(-249.75 -40.84)"/><rect class="cls-1" x="0.5" y="86.66" width="23.33" height="34.5"/><polygon class="cls-1" points="0.5 147.66 0.5 181.66 23.83 181.82 23.83 147.66 0.5 147.66"/><polygon class="cls-1" points="301.95 86.66 328.75 86.66 328.75 121.16 307.63 121.16 301.95 86.66"/><polygon class="cls-1" points="307.63 147.66 328.75 147.66 328.75 181.66 301.95 183.12 307.63 147.66"/></svg>