<?xml version="1.0" encoding="utf-8"?>
<!-- Generator: Adobe Illustrator 21.1.0, SVG Export Plug-In . SVG Version: 6.00 Build 0)  -->
<svg version="1.1" id="Layer_1" xmlns="http://www.w3.org/2000/svg" xmlns:xlink="http://www.w3.org/1999/xlink" x="0px" y="0px"
	 viewBox="0 0 329.3 450.3" style="enable-background:new 0 0 329.3 450.3;" xml:space="preserve">
<style type="text/css">
	.st0{fill:#4E4F4F;}
	.st1{fill:#FFFFFF;}
	.st2{fill:#4E4F4F;stroke:#4E4F4F;stroke-miterlimit:10;}
</style>
<title>earnings (ecris)</title>
<path class="st0" d="M23.8,181.8v268h59.4V269.5l94.5-0.3c0,0,105.5-1.7,124.5-87.3c0,0,20.5-83-18.5-132.2c0,0-27-45.8-115.5-49.2
	H23.8V181.8z"/>
<path class="st1" d="M82.3,49.7v37h152c0,0-16.5-35.5-65.5-37H82.3z"/>
<rect x="82.3" y="121.2" class="st1" width="162.5" height="26.5"/>
<path class="st1" d="M82.3,181.7v38H164c0,0,49.3,2.5,70.3-38H82.3z"/>
<rect x="0.5" y="86.7" class="st2" width="23.3" height="34.5"/>
<polygon class="st2" points="0.5,147.7 0.5,181.7 23.8,181.8 23.8,147.7 "/>
<polygon class="st2" points="302,86.7 328.8,86.7 328.8,121.2 307.6,121.2 "/>
<polygon class="st2" points="307.6,147.7 328.8,147.7 328.8,181.7 302,183.1 "/>
</svg>
