<?xml version="1.0" encoding="utf-8"?>
<!-- Generator: Adobe Illustrator 21.1.0, SVG Export Plug-In . SVG Version: 6.00 Build 0)  -->
<svg version="1.1" id="Layer_1" xmlns="http://www.w3.org/2000/svg" xmlns:xlink="http://www.w3.org/1999/xlink" x="0px" y="0px"
	 viewBox="0 0 329.3 450.3" style="enable-background:new 0 0 329.3 450.3;" xml:space="preserve">
<style type="text/css">
	.st0{fill:#5F6363;}
	.st1{fill:#5F6363;stroke:#5F6363;stroke-miterlimit:10;}
	.st2{fill:#FFFFFF;}
	.st3{fill:#FFFFFF;stroke:#FFFFFF;stroke-miterlimit:10;}
</style>
<title>earnings (ecris)</title>
<g>
	<g>
		<path class="st0" d="M22.5,188v236.9H75V265.5l83.5-0.3c0,0,93.2-1.5,110-77.2c0,0,18.1-73.4-16.4-116.8c0,0-23.9-40.5-102.1-43.5
			H22.5V188z"/>
		<rect x="1.9" y="104" class="st1" width="20.6" height="30.5"/>
		<polygon class="st1" points="1.9,157.9 1.9,187.9 22.5,188 22.5,157.9 		"/>
		<polygon class="st1" points="268.3,104 292,104 292,134.5 273.3,134.5 		"/>
		<polygon class="st1" points="273.3,157.9 292,157.9 292,187.9 268.3,189.2 		"/>
	</g>
	<path class="st2" d="M74.2,71.3V104h134.3c0,0-14.6-31.4-57.9-32.7C150.6,71.3,74.2,71.3,74.2,71.3z"/>
	<rect x="74.2" y="134.5" class="st2" width="143.6" height="23.4"/>
	<path class="st2" d="M74.2,187.9v33.6h72.2c0,0,43.6,2.2,62.1-33.6H74.2z"/>
</g>
<g>
	<path class="st2" d="M267.1,54.9c0,0-23.9-40.5-102.1-43.5H37.4v397.1h52.5V249.2l83.5-0.3c0,0,93.2-1.5,110-77.2
		C283.4,171.7,301.6,98.4,267.1,54.9z M89.1,54.9h76.5c43.3,1.3,57.9,32.7,57.9,32.7H89.1V54.9z M161.3,205.2H89.1v-33.6h134.3
		C204.9,207.4,161.3,205.2,161.3,205.2z M232.7,141.5H89.1v-23.4h143.6V141.5z"/>
	<rect x="16.8" y="87.6" class="st3" width="20.6" height="30.5"/>
	<polygon class="st3" points="16.8,141.5 16.8,171.6 37.4,171.7 37.4,141.5 	"/>
	<polygon class="st3" points="283.3,87.6 306.9,87.6 306.9,118.1 288.2,118.1 	"/>
	<polygon class="st3" points="288.2,141.5 306.9,141.5 306.9,171.6 283.3,172.8 	"/>
</g>
</svg>
