<?xml version="1.0" encoding="utf-8"?>
<!-- Generator: Adobe Illustrator 21.1.0, SVG Export Plug-In . SVG Version: 6.00 Build 0)  -->
<svg version="1.1" id="Layer_1" xmlns="http://www.w3.org/2000/svg" xmlns:xlink="http://www.w3.org/1999/xlink" x="0px" y="0px"
	 viewBox="0 0 295.6 299.4" style="enable-background:new 0 0 295.6 299.4;" xml:space="preserve">
<style type="text/css">
	.st0{fill:#7ECECE;}
	.st1{fill:none;stroke:#7ECECE;stroke-width:18;stroke-miterlimit:10;}
	.st2{fill:#7ECECE;enable-background:new    ;}
</style>
<title>live view</title>
<g id="XMLID_2_">
	<g>
		<path class="st0" d="M295.1,6.2v85.7c-11.8,8.2-22.7,0-22.7,0V26.4c0-4.5-5-4.7-5-4.7L200.7,22c-12.7-12.6,0-21.5,0-21.5h85.4
			C294.8,0.5,295.1,6.2,295.1,6.2z"/>
	</g>
	<g>
	</g>
</g>
<g id="XMLID_3_">
	<g>
		<path class="st0" d="M96.7,0.5c0,0,9.8,10.8,0,21.4l-69.1-0.2c0,0-4.5,1.6-4.5,4.7v64.8c0,0-9.8,9.5-22.1,0V6.1c0,0,1-5.6,6.6-5.6
			H96.7z"/>
		<path class="st0" d="M95.7,277.7c0,0,10.7,10.9,0,21.1H6.1c0,0-5.6,0.4-5.6-6.1v-84.8c0,0,11.7-9.7,21.9,0.8V272
			c0,0,0.2,4.9,6.1,5.7H95.7z"/>
	</g>
	<g>
	</g>
</g>
<g id="XMLID_1_">
	<g>
		<path class="st0" d="M295.1,293.4c0,0,0.5,5.5-8.1,5.5h-86.4c0,0-12.3-10,0-20.7l67.9-0.4c0,0,4.2-0.6,4.2-5.7v-63.6
			c0,0,11.4-10.4,22.5,0V293.4z"/>
	</g>
	<g>
	</g>
</g>
<polygon class="st1" points="62,54.9 62,251.3 237,251.3 237,98.3 191.4,48 62,48 "/>
<polyline class="st1" points="182.9,49 182.9,100.8 240.1,100.2 "/>
<path class="st2" d="M95.1,125.2h106.7c3.1,0,5.7,4,5.7,8.8l0,0c0,4.9-2.5,8.8-5.7,8.8H95.1c-3.1,0-5.7-4-5.7-8.8l0,0
	C89.4,129.2,91.9,125.2,95.1,125.2z"/>
<path class="st2" d="M96.1,159.6h105.7c3.1,0,5.7,4,5.7,8.8v0c0,4.9-2.5,8.8-5.7,8.8H96.1c-3.1,0-5.7-4-5.7-8.8v0
	C90.4,163.5,92.9,159.6,96.1,159.6z"/>
<path class="st2" d="M96.1,195h91.3c3.1,0,5.7,4,5.7,8.8v0c0,4.9-2.5,8.8-5.7,8.8H96.1c-3.1,0-5.7-4-5.7-8.8v0
	C90.4,199,92.9,195,96.1,195z"/>
</svg>
