<svg id="Layer_1" data-name="Layer 1" xmlns="http://www.w3.org/2000/svg" viewBox="0 0 295.56 299.37"><defs><style>.cls-1,.cls-3{fill:#050505;}.cls-1,.cls-2,.cls-3{stroke:#000;stroke-miterlimit:10;}.cls-2{fill:none;stroke-width:9px;}.cls-3{opacity:0.5;}</style></defs><title>live view</title><path class="cls-1" d="M525.83,223.74v65.45s10.86,8.15,22.66,0V203.5s-.31-5.69-9-5.69H454.14s-12.72,8.84,0,21.46l66.72-.26S525.83,219.27,525.83,223.74Z" transform="translate(-257.6 -197.31)"/><path class="cls-1" d="M280.68,223.79v64.8s-9.8,9.48-22.07,0V203.44s1-5.63,6.57-5.63h89.09s9.77,10.77,0,21.44l-69.09-.2S280.68,220.63,280.68,223.79Z" transform="translate(-257.6 -197.31)"/><path class="cls-1" d="M280,406v63.31s.23,4.93,6.05,5.72h67.26s10.71,10.85,0,21.1h-89.6s-5.64.39-5.64-6.11V405.25S269.79,395.59,280,406Z" transform="translate(-257.6 -197.31)"/><path class="cls-1" d="M530.19,469.4V405.82s11.35-10.43,22.48,0v84.85s.46,5.52-8.11,5.52H458.12s-12.28-10,0-20.67l67.89-.39S530.19,474.52,530.19,469.4Z" transform="translate(-257.6 -197.31)"/><polygon class="cls-2" points="70.06 54.72 70.06 245.3 229.4 245.3 229.4 96.84 187.88 48 70.06 48 70.06 54.72"/><polyline class="cls-2" points="187.88 48 187.88 97.45 229.4 96.84"/><rect class="cls-3" x="89.4" y="116.36" width="118" height="11.33" rx="5.67" ry="5.67"/><rect class="cls-3" x="90.4" y="144.02" width="117" height="11.33" rx="5.67" ry="5.67"/><rect class="cls-3" x="90.4" y="173.95" width="102.67" height="11.33" rx="5.67" ry="5.67"/><rect class="cls-3" x="90.73" y="203.69" width="102.33" height="11.33" rx="5.67" ry="5.67"/></svg>