<?xml version="1.0" encoding="utf-8"?>
<!-- Generator: Adobe Illustrator 21.1.0, SVG Export Plug-In . SVG Version: 6.00 Build 0)  -->
<svg version="1.1" id="Layer_1" xmlns="http://www.w3.org/2000/svg" xmlns:xlink="http://www.w3.org/1999/xlink" x="0px" y="0px"
	 viewBox="0 0 478.6 474.7" style="enable-background:new 0 0 478.6 474.7;" xml:space="preserve">
<style type="text/css">
	.st0{display:none;fill:#EADEA2;}
	.st1{fill:#FFFFFF;}
	.st2{fill:#698E8B;}
	.st3{fill:#FFFFFF;stroke:#698E8B;stroke-width:17;stroke-miterlimit:10;}
</style>
<title>pending request(ecris)</title>
<rect x="-7" y="-14" class="st0" width="491.5" height="491.5"/>
<g>
	<g id="rectangle">
		<path class="st1" d="M321.2,16H22.6c-6.5,0-11.7,5.2-11.7,11.7v363.6c0,6.5,5.2,11.7,11.7,11.7h172.6
			c-14.8-23.3-23.3-50.9-23.3-80.5c0-83.1,67.4-150.5,150.5-150.5c3.5,0,7,0.1,10.5,0.4V27.7C332.9,21.2,327.7,16,321.2,16z
			 M148.5,318.7c-1.7,2.3-4,3.7-6.6,3.7H51.5c-5.2,0-9.4-5.7-9.4-12.7v-0.2c0-6.9,4.3-12.5,9.4-12.5h90.4c5.2,0,9.4,5.7,9.4,12.7
			C151.3,313.2,150.3,316.4,148.5,318.7z M180.8,244.3c-1.7,2.3-4,3.7-6.6,3.7H50.4c-5.2,0-9.4-5.6-9.4-12.5c0-3.5,1-6.6,2.8-8.8
			c1.7-2.3,4-3.7,6.7-3.7h123.8c5.2,0,9.4,5.6,9.4,12.5C183.6,239,182.5,242.1,180.8,244.3z M273.3,168.3c-1.7,2.3-4,3.7-6.7,3.7
			H50.4c-5.2,0-9.4-5.7-9.4-12.7c0-3.5,1-6.7,2.8-9c1.7-2.3,4-3.7,6.7-3.7h216.2c5.2,0,9.4,5.7,9.4,12.7
			C276,162.8,275,166,273.3,168.3z M303.5,94.2c-1.7,2.4-4,3.9-6.6,3.9H50.5c-5.2,0-9.4-5.9-9.4-13.3v-0.3c0-7.3,4.3-13,9.4-13
			h246.4c5.2,0,9.4,5.9,9.4,13.3C306.3,88.5,305.3,91.8,303.5,94.2z"/>
	</g>
	<g id="ellipse">
		<path class="st1" d="M328,325.4l-5.3,62.7l45.6,39.4h-93.4c24.9-21.8,47.8-39.5,47.8-39.5l-7-59c-0.7-8.5-6.7-15.9-6.7-15.9
			l-10.7-14c-21.7-25.1-27.7-56.8-27.9-57.8c1.8,1.8,18.3,5.7,18.3,5.7c20.9,3.3,44.3-5.7,44.3-5.7c28.3-12.2,39.5,0,39.5,0
			c-0.3,8.4-9.8,29.4-9.8,29.4c-4.5,13.6-28.4,42.1-28.4,42.1C331.7,315.3,328,325.4,328,325.4z"/>
		<path class="st1" d="M321.3,181.9c-77.7,0-140.7,63-140.7,140.7s63,140.7,140.7,140.7S462,400.3,462,322.6S399,181.9,321.3,181.9z
			 M250.5,205.7h141.8c1.2,11-7.7,10.1-7.7,10.1H257.8C247.5,215.8,250.5,205.7,250.5,205.7z M391.9,438H251.1
			c-4-9.2,5.5-10.4,5.5-10.4h2.5c-1.1-10.7,9.4-38.8,9.4-38.8c5.4-22.4,36.9-56.9,36.9-56.9c4-5.6,2.2-12.9,2.2-12.9l-6.7-8.3
			c-39.5-41.9-43-91-43-91h126.9c0.9,5.8-7.3,32.2-7.3,32.2c-10.3,29.3-39,63.8-39,63.8c-7,7.6-3.1,14.2-3.1,14.2l14,15.4
			c26.3,25.4,35.1,82.3,35.1,82.3h-0.1C396.4,429.6,391.9,438,391.9,438z"/>
	</g>
	<path class="st2" d="M322.6,388.1l45.6,39.4h-93.4c24.9-21.8,47.8-39.5,47.8-39.5l-7-59c-0.7-8.5-6.7-15.9-6.7-15.9l-10.7-14
		c-21.7-25.1-27.7-56.8-27.9-57.8c1.8,1.8,18.3,5.7,18.3,5.7c20.9,3.3,44.3-5.7,44.3-5.7c28.3-12.2,39.5,0,39.5,0
		c-0.3,8.4-9.8,29.4-9.8,29.4c-4.5,13.6-28.4,42.1-28.4,42.1c-2.5,2.5-6.2,12.6-6.2,12.6L322.6,388.1z"/>
	<path class="st1" d="M322.6,388.1l45.6,39.4h-93.4c24.9-21.8,47.8-39.5,47.8-39.5l-7-59c-0.7-8.5-6.7-15.9-6.7-15.9l-10.7-14
		c-21.7-25.1-27.7-56.8-27.9-57.8c1.8,1.8,18.3,5.7,18.3,5.7c20.9,3.3,44.3-5.7,44.3-5.7c28.3-12.2,39.5,0,39.5,0
		c-0.3,8.4-9.8,29.4-9.8,29.4c-4.5,13.6-28.4,42.1-28.4,42.1c-2.5,2.5-6.2,12.6-6.2,12.6L322.6,388.1z"/>
	<circle class="st3" cx="-12" cy="-14" r="0"/>
</g>
<path class="st0" d="M473,322.5c0,83.2-67.4,150.5-150.5,150.5c-53.6,0-100.6-28-127.3-70.1h126c6.5,0,11.7-5.2,11.7-11.7V172.4
	C411.2,177.7,473,242.9,473,322.5z"/>
</svg>
