<?xml version="1.0" encoding="utf-8"?>
<!-- Generator: Adobe Illustrator 21.1.0, SVG Export Plug-In . SVG Version: 6.00 Build 0)  -->
<svg version="1.1" id="Layer_1" xmlns="http://www.w3.org/2000/svg" xmlns:xlink="http://www.w3.org/1999/xlink" x="0px" y="0px"
	 viewBox="0 0 478.6 474.7" style="enable-background:new 0 0 478.6 474.7;" xml:space="preserve">
<style type="text/css">
	.st0{fill:#AAAFAE;}
	.st1{fill:#FFFFFF;stroke:#AAAFAE;stroke-width:8;stroke-miterlimit:10;}
	.st2{fill:#FFFFFF;stroke:#698E8B;stroke-width:17;stroke-miterlimit:10;}
	.st3{fill:#698E8B;}
	.st4{fill:#FFFFFF;}
	.st5{fill:#C0CECC;}
</style>
<title>pending request(ecris)</title>
<g>
	<g id="rectangle_1_">
		<path class="st0" d="M14.7,24.8h298.6c6.5,0,11.7,5.2,11.7,11.7v363.6c0,6.5-5.2,11.7-11.7,11.7H14.7c-6.5,0-11.7-5.2-11.7-11.7
			V36.5C3,30,8.2,24.8,14.7,24.8z"/>
	</g>
	<g id="rectangle">
		<path class="st1" d="M22.6,16h298.6c6.5,0,11.7,5.2,11.7,11.7v363.6c0,6.5-5.2,11.7-11.7,11.7H22.6c-6.5,0-11.7-5.2-11.7-11.7
			V27.7C10.9,21.2,16.1,16,22.6,16z"/>
	</g>
	<g id="ellipse">
		<circle class="st2" cx="321.3" cy="322.6" r="140.7"/>
	</g>
	<path class="st3" d="M260.3,220.3c0,0-2.7,8.9,6.4,8.9h111.7c0,0,7.9,0.8,6.8-8.9H260.3z"/>
	<path class="st3" d="M266.7,232.6c0,0,3.1,43.3,37.9,80.2l5.9,7.3c0,0,1.6,6.5-1.9,11.4c0,0-27.7,30.4-32.5,50.1
		c0,0-9.3,24.8-8.3,34.2h110.4c0,0-7.7-50.1-30.9-72.5L335,329.7c0,0-3.5-5.8,2.7-12.5c0,0,25.3-30.4,34.4-56.2
		c0,0,7.2-23.3,6.4-28.4L266.7,232.6z"/>
	<path class="st3" d="M384.8,425c0,0,4-7.4-6.7-9.2H265.6c0,0-8.3,1.1-4.8,9.2H384.8z"/>
	<path class="st4" d="M277.7,251.7c0,0,5.2,28.4,24.6,50.9l9.4,12.3c0,0,5.3,6.5,5.9,14l6.2,52c0,0-20.2,15.6-42.1,34.8h82.3
		L323.8,381l4.7-55.2c0,0,3.3-8.9,5.5-11.1c0,0,21-25.1,25-37.1c0,0,8.3-18.5,8.6-25.9c0,0-9.9-10.7-34.8,0c0,0-20.6,7.9-39,5
		C293.8,256.7,279.2,253.3,277.7,251.7z"/>
	<path class="st5" d="M50.4,146.6h216.2c5.2,0,9.4,5.7,9.4,12.7v0c0,7-4.2,12.7-9.4,12.7H50.4c-5.2,0-9.4-5.7-9.4-12.7v0
		C41,152.2,45.2,146.6,50.4,146.6z"/>
	<path class="st5" d="M50.5,71.5h246.4c5.2,0,9.4,5.9,9.4,13.3l0,0c0,7.3-4.2,13.3-9.4,13.3H50.5c-5.2,0-9.4-5.9-9.4-13.3l0,0
		C41,77.4,45.3,71.5,50.5,71.5z"/>
	<path class="st5" d="M51.5,297h90.4c5.2,0,9.4,5.7,9.4,12.7v0c0,7-4.2,12.7-9.4,12.7H51.5c-5.2,0-9.4-5.7-9.4-12.7v0
		C42,302.7,46.3,297,51.5,297z"/>
	<path class="st5" d="M50.4,223h123.8c5.2,0,9.4,5.6,9.4,12.5v0c0,6.9-4.2,12.5-9.4,12.5H50.4c-5.2,0-9.4-5.6-9.4-12.5v0
		C41,228.6,45.2,223,50.4,223z"/>
</g>
</svg>
