<?xml version="1.0" encoding="utf-8"?>
<!-- Generator: Adobe Illustrator 21.1.0, SVG Export Plug-In . SVG Version: 6.00 Build 0)  -->
<svg version="1.1" id="Layer_1" xmlns="http://www.w3.org/2000/svg" xmlns:xlink="http://www.w3.org/1999/xlink" x="0px" y="0px"
	 viewBox="0 0 196.3 211" style="enable-background:new 0 0 196.3 211;" xml:space="preserve">
<style type="text/css">
	.st0{display:none;}
	.st1{display:inline;opacity:0.6;fill:#5B5B5B;enable-background:new    ;}
	.st2{display:inline;fill:#B5AFAE;}
	.st3{display:inline;fill:#BAB6B5;}
	.st4{display:inline;fill:#605D5D;enable-background:new    ;}
	.st5{display:inline;fill:#FFFFFF;}
	.st6{display:inline;fill:#BF5641;}
	.st7{display:inline;opacity:0.35;stroke:#050505;stroke-width:0.75;stroke-miterlimit:10;enable-background:new    ;}
	.st8{fill:#AAAFAE;}
	.st9{fill:#FFFFFF;stroke:#AAAFAE;stroke-width:8;stroke-miterlimit:10;}
	.st10{fill:#FFFFFF;stroke:#80A09D;stroke-width:7;stroke-miterlimit:10;}
	.st11{fill:#80A09D;}
	.st12{fill:#FFFFFF;}
	.st13{fill:#C0CECC;}
</style>
<title>service provided(ecris)</title>
<g class="st0">
	<path class="st1" d="M42,4.7h22.4c1.9,0,3.5,1.4,3.5,3.1v22.8H38.5V7.8C38.5,6.1,40,4.7,42,4.7z"/>
	<path class="st1" d="M129.3,3.7h22.4c1.9,0,3.5,1.4,3.5,3.1v23.8h-29.4V6.8C125.8,5.1,127.4,3.7,129.3,3.7z"/>
	<path class="st2" d="M189.9,44.7v19H3.4v-19c0-6.3,5.2-11.4,11.5-11.4h163.5C184.7,33.3,189.9,38.4,189.9,44.7z"/>
	<path class="st3" d="M189.9,68.2v128.4c0,5.1-5.2,9.2-11.5,9.2H14.9c-6.4,0-11.5-4.1-11.5-9.2V68.2H189.9z"/>
	<path class="st4" d="M43.5,2.4h22.4c1.9,0,3.5,1.4,3.5,3.1v22.8H40V5.5C40,3.8,41.5,2.4,43.5,2.4z"/>
	<path class="st4" d="M130.8,2.4h22.4c1.9,0,3.5,1.4,3.5,3.1v22.8h-29.4V5.5C127.3,3.8,128.9,2.4,130.8,2.4z"/>
	<path class="st5" d="M190.4,66.6v126.9c0,5-5.1,9.1-11.4,9.1H17.4c-6.3,0-11.4-4.1-11.4-9.1V66.6H190.4z"/>
	<path class="st6" d="M190.4,42.8v16.7H5V42.8c0-5.5,5.1-10,11.5-10h162.5C185.3,32.8,190.4,37.2,190.4,42.8z"/>
	<path class="st7" d="M28.7,73.1H166c4.5,0,8.2,3.7,8.2,8.2l0,0c0,4.5-3.7,8.2-8.2,8.2H28.7c-4.5,0-8.2-3.7-8.2-8.2l0,0
		C20.5,76.7,24.2,73.1,28.7,73.1z"/>
	<path class="st7" d="M30.6,108.1h119.5c4.5,0,8.2,3.7,8.2,8.2v0c0,4.5-3.7,8.2-8.2,8.2H30.6c-4.5,0-8.2-3.7-8.2-8.2v0
		C22.4,111.8,26.1,108.1,30.6,108.1z"/>
	<path class="st7" d="M30.1,141.7h102.2c4.5,0,8.2,3.7,8.2,8.2l0,0c0,4.5-3.7,8.2-8.2,8.2H30.1c-4.5,0-8.2-3.7-8.2-8.2l0,0
		C22,145.4,25.6,141.7,30.1,141.7z"/>
	<path class="st7" d="M30.2,171h53.4c4.5,0,8.2,3.7,8.2,8.2l0,0c0,4.5-3.7,8.2-8.2,8.2H30.2c-4.5,0-8.2-3.7-8.2-8.2l0,0
		C22.1,174.7,25.7,171,30.2,171z"/>
</g>
<g>
	<g id="rectangle_1_">
		<path class="st8" d="M10.7,22h119.6c2.6,0,4.7,2.1,4.7,4.7v145.7c0,2.6-2.1,4.7-4.7,4.7H10.7c-2.6,0-4.7-2.1-4.7-4.7V26.6
			C6,24.1,8.1,22,10.7,22z"/>
	</g>
	<g id="rectangle">
		<path class="st9" d="M13.8,18.4h119.6c2.6,0,4.7,2.1,4.7,4.7v145.7c0,2.6-2.1,4.7-4.7,4.7H13.8c-2.6,0-4.7-2.1-4.7-4.7V23.1
			C9.1,20.5,11.2,18.4,13.8,18.4z"/>
	</g>
	<g id="ellipse">
		<circle class="st10" cx="133.5" cy="141.3" r="56.4"/>
	</g>
	<path class="st11" d="M109.1,100.3c0,0-1.1,3.6,2.6,3.6h44.8c0,0,3.2,0.3,2.7-3.6H109.1z"/>
	<path class="st11" d="M111.7,105.2c0,0,1.2,17.3,15.2,32.1l2.3,2.9c0,0,0.6,2.6-0.7,4.6c0,0-11.1,12.2-13,20.1c0,0-3.7,10-3.3,13.7
		h44.2c0,0-3.1-20.1-12.4-29l-4.9-5.5c0,0-1.4-2.3,1.1-5c0,0,10.1-12.2,13.8-22.5c0,0,2.9-9.3,2.6-11.4L111.7,105.2z"/>
	<path class="st11" d="M159,182.3c0,0,1.6-3-2.7-3.7h-45.1c0,0-3.3,0.4-1.9,3.7H159z"/>
	<path class="st12" d="M116.1,112.9c0,0,2.1,11.4,9.9,20.4l3.8,4.9c0,0,2.1,2.6,2.4,5.6l2.5,20.9c0,0-8.1,6.3-16.9,13.9h33
		l-16.1-13.9l1.9-22.1c0,0,1.3-3.6,2.2-4.4c0,0,8.4-10.1,10-14.9c0,0,3.3-7.4,3.5-10.4c0,0-4-4.3-13.9,0c0,0-8.2,3.1-15.6,2
		C122.5,114.9,116.7,113.5,116.1,112.9z"/>
	<path class="st13" d="M25,70.7h86.6c2.1,0,3.8,2.3,3.8,5.1v0c0,2.8-1.7,5.1-3.8,5.1H25c-2.1,0-3.8-2.3-3.8-5.1v0
		C21.2,73,22.9,70.7,25,70.7z"/>
	<path class="st13" d="M25,40.7h98.7c2.1,0,3.8,2.4,3.8,5.3l0,0c0,2.9-1.7,5.3-3.8,5.3H25c-2.1,0-3.8-2.4-3.8-5.3l0,0
		C21.2,43,22.9,40.7,25,40.7z"/>
	<path class="st13" d="M25.4,131h36.2c2.1,0,3.8,2.3,3.8,5.1v0c0,2.8-1.7,5.1-3.8,5.1H25.4c-2.1,0-3.8-2.3-3.8-5.1v0
		C21.6,133.3,23.3,131,25.4,131z"/>
	<path class="st13" d="M25,101.4h49.6c2.1,0,3.8,2.2,3.8,5v0c0,2.8-1.7,5-3.8,5H25c-2.1,0-3.8-2.2-3.8-5v0
		C21.2,103.6,22.9,101.4,25,101.4z"/>
</g>
</svg>
