<svg xmlns="http://www.w3.org/2000/svg" viewBox="0 0 478.6 474.66"><defs><style>.cls-1{fill:#fff;stroke-width:15px;}.cls-1,.cls-2,.cls-3{stroke:#000;stroke-miterlimit:10;}.cls-2{fill:#f9f9f9;stroke-width:17px;}.cls-4{fill:#a9a9aa;}.cls-5{fill:#7ae2df;}</style></defs><title>pending request(ecris)</title><g id="rectangle"><rect class="cls-1" x="7.5" y="7.5" width="330.21" height="396.88" rx="12" ry="12"/></g><g id="ellipse"><circle class="cls-2" cx="325.8" cy="321.87" r="144.3"/></g><g id="time_sand" data-name="time sand"><path class="cls-3" d="M499.72,279.86s-2.51,8.41,6,8.41h105s7.39.74,6.39-8.41Z" transform="translate(-227.58 -52.63)"/><path d="M505.73,288.27s2.88,40.69,35.57,75.39l5.51,6.83s1.5,6.1-1.75,10.72c0,0-26.05,28.6-30.56,47.1,0,0-8.77,23.34-7.77,32.17H610.44s-7.27-47.1-29.06-68.13l-11.52-12.83s-3.26-5.47,2.51-11.78c0,0,23.8-28.6,32.32-52.78,0,0,6.76-21.87,6-26.71Z" transform="translate(-227.58 -52.63)"/><path class="cls-3" d="M616.71,469.12s3.76-6.94-6.26-8.62H504.73s-7.77,1.05-4.51,8.62Z" transform="translate(-227.58 -52.63)"/><path class="cls-4" d="M512.24,304.47s9.9,37.75,25.11,51.47l9.58,12.46s5.45,6.62,6,14.19l4.32,46.53s1.88,6.94-4.7,9.46c0,0-13.9,2.52-36.26,21.92h84s-25.55-20.82-37.58-22.55c0,0-4.89-1.89-3.38-9.31l4.7-49.21s3.38-9,5.64-11.2c0,0,21.42-25.39,25.55-37.54,0,0,8.45-18.72,8.83-26.23,0,0-10.15-10.78-35.51,0,0,0-21,7.94-39.83,5.1C528.71,309.57,513.81,306.15,512.24,304.47Z" transform="translate(-227.58 -52.63)"/></g><g id="paper_line" data-name="paper line"><rect class="cls-5" x="38.42" y="141.37" width="241" height="19.33" rx="9.67" ry="9.67"/><rect class="cls-5" x="37.42" y="64.37" width="272" height="19.33" rx="9.67" ry="9.67"/><rect class="cls-5" x="37.42" y="302.43" width="112" height="19.33" rx="9.67" ry="9.67"/><rect class="cls-5" x="38.42" y="226" width="146.33" height="19.33" rx="9.67" ry="9.67"/></g></svg>