<?xml version="1.0" encoding="utf-8"?>
<!-- Generator: Adobe Illustrator 21.1.0, SVG Export Plug-In . SVG Version: 6.00 Build 0)  -->
<svg version="1.1" id="Layer_1" xmlns="http://www.w3.org/2000/svg" xmlns:xlink="http://www.w3.org/1999/xlink" x="0px" y="0px"
	 viewBox="0 0 464.3 390.6" style="enable-background:new 0 0 464.3 390.6;" xml:space="preserve">
<style type="text/css">
	.st0{display:none;fill:#FFFFFF;}
	.st1{display:none;}
	.st2{display:inline;opacity:0.5;fill:#09BAB5;stroke:#000000;stroke-width:0.25;stroke-miterlimit:10;enable-background:new    ;}
	.st3{display:inline;fill:url(#SVGID_1_);}
	.st4{display:inline;fill:#7ECECE;}
	.st5{display:inline;fill:none;stroke:#7ECECE;stroke-width:28;stroke-miterlimit:10;}
	.st6{display:inline;fill:none;stroke:#7ECECE;stroke-width:30;stroke-miterlimit:10;}
	.st7{display:inline;fill:#7ECECE;stroke:#FFFFFF;stroke-width:8;stroke-miterlimit:10;}
	.st8{display:inline;fill:#FFFFFF;}
	.st9{fill:none;stroke:#7ECECE;stroke-width:20;stroke-miterlimit:10;}
	.st10{fill:#6AB7B5;}
</style>
<title>dashboard(ecris)</title>
<rect x="-3.4" y="-5.6" class="st0" width="475" height="406"/>
<g class="st1">
	<rect x="260.2" y="185.3" class="st2" width="65.6" height="164.3"/>
	<rect x="163.3" y="131.4" class="st2" width="70" height="218.2"/>
	<rect x="67.9" y="68.6" class="st2" width="73" height="281"/>
	<rect x="346.5" y="240.5" class="st2" width="62.6" height="109.1"/>
</g>
<g id="Layer_2">
</g>
<g class="st1">
	<linearGradient id="SVGID_1_" gradientUnits="userSpaceOnUse" x1="72.8814" y1="206.9043" x2="423.006" y2="206.9043">
		<stop  offset="0" style="stop-color:#C6E0DC"/>
		<stop  offset="1" style="stop-color:#FFFFFF"/>
	</linearGradient>
	<path class="st3" d="M74.7,304H423c0,0-3.7-38.4-41.5-40c-38.7-1.7-67-72.3-97.7-75.9s-49.8,54.2-73.7,53.2
		c-31-1.4-51-126.1-76.1-130.7s-41.3,10.1-51.7,66.2C67.3,257.7,74.7,304,74.7,304z"/>
</g>
<g class="st1">
	<path class="st4" d="M44.8,354h-30V72.6c0-3.6,2.9-6.6,6.6-6.6h16.9c3.6,0,6.6,2.9,6.6,6.6V354z"/>
	<path class="st4" d="M14.8,354v-30h428.1c3.6,0,6.6,2.9,6.6,6.6v16.9c0,3.6-2.9,6.6-6.6,6.6H14.8z"/>
	<path class="st5" d="M422.7,304c-3.9-38.7-43.4-31.1-59.9-38.7c-24.7-11.3-51.4-72.3-89.3-70c-34.9,2.1-29.6,42.1-62.7,42.7
		c-38,0.7-34.7-123.3-82-123.3c-62,0-54.1,189.4-54.1,189.4"/>
</g>
<g class="st1">
	<path class="st4" d="M394.2,333.4l-8.4,10.1c-5,6.1-14,6.9-20.1,1.9L241.4,242.2l-1.7-1.4l26.6-32.1l1.7,1.4l124.4,103.1
		C398.4,318.3,399.2,327.3,394.2,333.4z"/>
	<circle class="st6" cx="182.3" cy="157.8" r="111.9"/>
	<path class="st4" d="M247.2,200.5c-14,21.4-38.1,35.5-65.6,35.5c-43.3,0-78.3-35.1-78.3-78.3c0-5.8,0.6-11.4,1.8-16.9
		c8.6,42.6,46.2,74.7,91.3,74.7C215.2,215.5,232.6,210,247.2,200.5z"/>
</g>
<g class="st1">
	<path class="st4" d="M315.1,324.4H103.8c-5.4,0-9.8-4.4-9.8-9.8v-76.3c0-35.6,29.1-64.6,64.6-64.6h101.6
		c35.6,0,64.6,29.1,64.6,64.6v76.3C324.9,320,320.5,324.4,315.1,324.4z"/>
	<circle class="st4" cx="209.5" cy="85.8" r="81.4"/>
	<circle class="st7" cx="318.9" cy="276.9" r="109.1"/>
	<path class="st8" d="M226.1,282.8V271c0-9.3,7.6-17,17-17h153.6c9.3,0,17,7.6,17,17v11.8c0,9.3-7.6,17-17,17H243.1
		C233.7,299.8,226.1,292.1,226.1,282.8z"/>
	<path class="st8" d="M326.3,366.1H315c-9,0-16.3-7.3-16.3-16.3V202.5c0-9,7.3-16.3,16.3-16.3h11.3c9,0,16.3,7.3,16.3,16.3v147.3
		C342.6,358.8,335.2,366.1,326.3,366.1z"/>
</g>
<path class="st9" d="M429,198.5v101.6h-44.8l0.7-59.6H80.6L80,300.1H34.6V198.5c0-17.1,13.9-31,31-31H398
	C415.1,167.5,429,181.4,429,198.5z"/>
<path class="st10" d="M403.7,247.8H59.1v-14.6c0-11.3,9.2-20.5,20.5-20.5h303.6c11.3,0,20.5,9.2,20.5,20.5V247.8z"/>
<rect x="80.3" y="16" class="st9" width="304.2" height="118.5"/>
<rect x="80.3" y="240.5" class="st9" width="304.2" height="118.5"/>
</svg>
