<svg id="Layer_1" data-name="Layer 1" xmlns="http://www.w3.org/2000/svg" viewBox="0 0 380.66 402.65"><defs><style>.cls-1{fill:#094f7f;}.cls-2{fill:#083c60;}.cls-3{fill:#020202;}.cls-4{fill:#0a3451;}.cls-5{fill:#09283d;}.cls-6{fill:#073249;}.cls-7{fill:#fff;}.cls-8{fill:#f1e00b;}.cls-9{fill:#f908bb;}.cls-10{fill:#359e0a;}.cls-11{fill:#ccdbe5;}.cls-12{fill:#0d161a;}.cls-13{fill:#f6f7f5;}.cls-14{fill:#e3ebf1;}.cls-15{fill:#e4ebf1;}.cls-16{fill:#2e920c;}.cls-17{fill:#f40203;}.cls-18{fill:#fdfeff;}.cls-19{fill:#dee6e9;}.cls-20{fill:#838382;}.cls-21{fill:#858684;}.cls-22{fill:#858686;}.cls-23{fill:#838484;}.cls-24{fill:#868787;}</style></defs><title>Print (ecris)</title><path class="cls-1" d="M518.06,266.34c5.81.15,4.7.59,4.71-4.35.05-20.35,0-40.69,0-61a8.11,8.11,0,0,1,.37-3.75c6.4,1.05,12.55,2.7,17.28,7.59a13.1,13.1,0,0,1,3.72,10.92c-.21,2.13-.17,4.29-.18,6.44q0,10.33,0,20.67c0,1.16-.24,2.38.61,3.39.54,4.71.09,9.44.24,14.16.1,3.34.36,3.5,3.75,3.71,10.92.68,21.87.65,32.8,1.28,1.29.07,2.52.6,3.82.44,3.44,1.24,4.51,3.92,4.51,7.31q0,27.66,0,55.33c0,1.93-.07,3.85-.11,5.78-1.22,1.18-2.79,1-4.27,1q-70.9,0-141.81,0c-2.82,0-5-.68-6.27-3.48-1.69-3.65-4.91-4.91-8.75-4.92-6.78,0-13.57,0-20.35,0-15.51,0-31,0-46.52,0-4.61,0-8.24,1.3-10.13,5.86a4.11,4.11,0,0,1-3.85,2.48c-1,.07-1.94.08-2.91.08q-65.09,0-130.18,0c-1.78,0-3.7.39-5.23-1,0-20-.08-40,0-60,0-3.52,1.1-6.6,5-7.7,4.59-.76,9.22-.55,13.83-.45,6.79.15,13.53-.45,20.3-.67,2.24-.07,3-1.05,3-3.17,0-3.12,0-6.24,0-9.36a6,6,0,0,1,1-4c0-10.87.16-21.75,0-32.62a14.69,14.69,0,0,1,6.6-12.89c4.27-3.07,9.15-4.71,14.2-5.94,1.36-.33,1.74.26,1.67,1.49,0,.75,0,1.51,0,2.26q0,30.68,0,61.36v3.61a7,7,0,0,0,3.28.22c3-1.75,6.19-.74,9.31-.92a33.22,33.22,0,0,1,3.87-.1H502.59c6,0,6,0,6-6q0-63.14,0-126.28c0-5.78,0-5.78-5.92-5.78q-104.48,0-209,0c-2.11,0-4.33.49-6.26-.91-.08-1.62,1.24-1.51,2.2-1.69a25.71,25.71,0,0,1,4.51-.14H503.35c7.83,0,8,.13,8,7.88q0,63,0,125.92c0,1,.06,1.94,0,2.9-.17,2.69.64,4.4,3.74,4.21A4.12,4.12,0,0,1,518.06,266.34Z" transform="translate(-209.14 -116)"/><path class="cls-1" d="M589.62,337.42c0,1,.11,1.93.11,2.9,0,27.43.22,54.87-.11,82.3-.11,9.64-3.71,18-12.76,23.11A132.47,132.47,0,0,1,564.5,452a2.77,2.77,0,0,1-1.83.45,5.7,5.7,0,0,1-1.81-3c-8.19-24.62-16.21-49.3-24.35-73.94a29.48,29.48,0,0,0-7-12.15,21.13,21.13,0,0,0-14.77-6.27c-1,0-1.94,0-2.91,0-74.4,0-148.81.14-223.21-.14a28.62,28.62,0,0,0-26.4,17.59c-10.46,24.92-21.23,49.7-31.81,74.57-.55,1.3-1.08,2.6-2.44,3.29-2.18-.79-3.64-2.56-5.35-4a68.62,68.62,0,0,1-9-8.8,18.2,18.2,0,0,1-4.4-11.86q0-45.18.13-90.35c1.11-1.13,2.57-1,3.94-1q66.22,0,132.44,0c3.07,0,5.08.92,6.1,4,1.22,3.71,4.23,5.51,7.95,5.54q34.88.34,69.77,0a8.1,8.1,0,0,0,8.21-6.1c.8-2.62,2.58-3.51,5.12-3.44,1.29,0,2.58,0,3.88,0q68.48,0,137,0C585.72,336.42,587.85,335.92,589.62,337.42Z" transform="translate(-209.14 -116)"/><path class="cls-2" d="M547.69,452.48c-4.94.43-9.89.1-14.83.19-2.25,0-4.51,0-7.21,0l19.49,66H236.56c8.29-22,16.91-43.66,25.29-65.78-6.19-.53-12,.16-17.73-.39-.63-1.48.16-2.75.67-4,9.3-22.72,18.75-45.37,28.1-68.06,3.27-7.94,9.38-10.86,18.19-10a145.06,145.06,0,0,0,16.13.3c63.72-1,127.45-.48,191.18-.64,5,0,9.91.41,14.81.89,7.39.72,11.54,5.9,13.86,12.43,3,8.52,5.58,17.2,8.21,25.85,3.66,12.05,7.59,24,11.18,36.09C547.13,447.63,548.44,449.89,547.69,452.48Z" transform="translate(-209.14 -116)"/><path class="cls-3" d="M547.69,452.48l-11.58-37.19c-3.25-10.45-6.39-20.94-9.81-31.33-1.85-5.64-5.26-10.08-11.3-11.87a6.29,6.29,0,0,0-1.87-.4c-4.09.11-8.15-.56-12.22-.56-53.6,0-107.2-.23-160.79.12-15,.1-30.11.12-45.16.36a29.17,29.17,0,0,1-4.16-.32A18.23,18.23,0,0,0,279,373.56a9.74,9.74,0,0,0-4.09,4.84c-3.15,7.53-6.36,15-9.49,22.57q-10.68,25.74-21.3,51.51c-5.39.18-10.78.29-16.17-.07q10.06-23.57,20.12-47.14c4.73-11.07,9.16-22.28,14.32-33.14,4.78-10.07,12.83-15.9,24.44-15.9q111.54,0,223.09,0a48.22,48.22,0,0,1,8.36.27c8.39,1.46,13.92,6.47,17.3,14,2.88,6.37,4.62,13.17,6.83,19.79,6.35,19.06,12.58,38.16,18.85,57.25.53,1.63,1,3.29,1.44,4.94C557.68,452.73,552.68,452.68,547.69,452.48Z" transform="translate(-209.14 -116)"/><path class="cls-4" d="M518.06,266.34c-1.94,0-3.87,0-5.81,0-1.33,0-2-.48-2-1.88,0-1,0-1.94,0-2.9q0-65.85,0-131.7c0-4.71.39-4.43-4.29-4.43q-107.49,0-215,0c-1.21,0-2.6-.55-3.63.65,1.07,1.26,1,2.8,1,4.3q0,65.81,0,131.63c0,1.49.1,3-1,4.29l-9.21,0q0-73.13,0-146.26c0-4.71-.55-4,4.17-4q115.75,0,231.5,0c4.79,0,4.14-.63,4.14,4q0,70.87,0,141.74C518,263.32,518.05,264.83,518.06,266.34Z" transform="translate(-209.14 -116)"/><path class="cls-5" d="M589.62,337.42l-144,0h-2.91c-3,0-3.11,0-3.88,2.83-1.23,4.52-4.48,6.29-8.76,6.8a13.88,13.88,0,0,1-1.61,0h-67.5a11.79,11.79,0,0,1-7-1.89,8,8,0,0,1-3.25-4.63c-1-3.73-.81-3.13-4.05-3.13q-36.82,0-73.63,0H209.35a6.45,6.45,0,0,1,0-3.22H345.25c.86,0,1.72,0,2.58,0a2.43,2.43,0,0,0,2.93-2.17c1-3.95,4.06-5.57,7.81-6.17a10.33,10.33,0,0,1,1.61,0q34.38,0,68.76,0a10,10,0,0,1,8.06,3.29,8.53,8.53,0,0,1,1.72,3.42,2.08,2.08,0,0,0,2.39,1.68c.86-.07,1.72,0,2.58,0l145.92,0A7.81,7.81,0,0,1,589.62,337.42Z" transform="translate(-209.14 -116)"/><path class="cls-6" d="M585.23,265.8c-1,.93-2.25.55-3.38.54-8.34-.11-16.66-.69-25-.78-3.59,0-7.23-.45-10.86-.48-1.22,0-2.1-.26-2.09-1.74,0-5.25,0-10.5,0-15.76a1.7,1.7,0,0,1,.72-1.37c5.14,2.43,10.29,4.83,15.41,7.31C568.45,257.58,576.83,261.7,585.23,265.8Z" transform="translate(-209.14 -116)"/><path class="cls-6" d="M252.43,248.84c0,5,0,10.07,0,15.1,0,1.48-.24,2.34-2.06,2.46-11.43.74-22.87.59-34.31.62a2.26,2.26,0,0,1-1.78-.53l32.26-15C248.52,250.55,250.48,249.71,252.43,248.84Z" transform="translate(-209.14 -116)"/><path class="cls-7" d="M287.4,266.34q0-70.11,0-140.22a11.66,11.66,0,0,1,3.85-.25H506.31c3.83,0,3.48-.36,3.48,3.45q0,66.85,0,133.69c0,.11,0,.22,0,.32,0,3.46.27,3.12-3.13,3.12H291.27C290,266.44,288.69,266.38,287.4,266.34Z" transform="translate(-209.14 -116)"/><path class="cls-8" d="M244.08,325q-10.8,0-21.59,0c-2.91,0-2.92,0-2.93-3s0-6,0-9c0-1.21.45-1.8,1.69-1.74.64,0,1.29,0,1.93,0h41.57c.43,0,.86,0,1.29,0,2.42.07,2.45.07,2.47,2.57q0,4.35,0,8.7c0,2.47-.06,2.51-2.51,2.52C258.69,325,251.38,325,244.08,325Z" transform="translate(-209.14 -116)"/><path class="cls-9" d="M244.08,307.66H222.8c-3.51,0-3.24.2-3.25-3.38,0-2.79,0-5.59,0-8.38,0-1.38.47-1.91,1.86-1.89,3.65.06,7.31,0,11,0h32.88c3.62,0,3.25,0,3.26,3.38,0,2.58,0,5.16,0,7.74s-.05,2.51-2.49,2.51C258.69,307.67,251.39,307.66,244.08,307.66Z" transform="translate(-209.14 -116)"/><path class="cls-10" d="M244.07,277.28c7.21,0,14.42,0,21.63,0,2.8,0,2.82,0,2.84,2.89s0,5.6,0,8.39c0,2.25-.08,2.31-2.42,2.32-9,0-18.08,0-27.12,0-5.7,0-11.41,0-17.11,0-2.27,0-2.31-.08-2.34-2.38q-.06-4.36,0-8.72c0-2.43.07-2.48,2.57-2.49C229.44,277.27,236.75,277.29,244.07,277.28Z" transform="translate(-209.14 -116)"/><path class="cls-11" d="M503.16,273.47c4.74,0,9.48,0,14.21,0a6.75,6.75,0,0,1,5.86,2.82,6.57,6.57,0,0,1-2.85,10,10.76,10.76,0,0,1-4.12.65c-8.94,0-17.87,0-26.81,0a13.15,13.15,0,0,1-2.88-.27,6.6,6.6,0,0,1,1.08-13.09c4.41-.14,8.83,0,13.24-.05h2.26Z" transform="translate(-209.14 -116)"/><path class="cls-12" d="M393.42,298.73q-27.6,0-55.2,0c-1.83,0-3.93.66-5.17-1.6s.17-3.89,1.2-5.61c3.21-5.34,6.48-10.65,9.66-16a5.19,5.19,0,0,1,5-2.74q44.87.1,89.73,0a5,5,0,0,1,4.87,2.86c3.13,5.51,6.46,10.91,9.7,16.36.28.46.54.93.77,1.42,1.39,2.9.08,5.15-3.14,5.35-.86.05-1.72,0-2.58,0Z" transform="translate(-209.14 -116)"/><path class="cls-13" d="M327.54,283.52a14.1,14.1,0,0,1-7.24,11.24c-3.14,1.88-6.51,2.26-9.77.32s-4.3-5-4.19-8.53a14.45,14.45,0,0,1,7-12.32c3.08-1.94,6.44-2.49,9.76-.65S327.61,278.6,327.54,283.52Z" transform="translate(-209.14 -116)"/><path class="cls-14" d="M325.36,312.15l5.45-6.44a1.77,1.77,0,0,1,1.39-.68h11.44c-1.88,2.43-3.37,4.35-4.86,6.27a2.57,2.57,0,0,1-2.3.85C333,312.14,329.61,312.15,325.36,312.15Z" transform="translate(-209.14 -116)"/><path class="cls-15" d="M464.61,311.74H453.53c-.74,0-1.52.08-2.06-.61l-5.14-6.52c4.27,0,7.76,0,11.24,0a2.1,2.1,0,0,1,1.68.78C460.89,307.3,462.51,309.24,464.61,311.74Z" transform="translate(-209.14 -116)"/><path class="cls-14" d="M425.59,311.73c-4.14,0-7.67,0-11.21,0a2.66,2.66,0,0,1-2.22-1c-1.37-1.64-2.76-3.25-4.4-5.17,2-.59,3.82-.06,5.52-.36,4.89-.85,8.48,1,11.12,5C424.62,310.57,424.9,310.87,425.59,311.73Z" transform="translate(-209.14 -116)"/><path class="cls-14" d="M426.45,305.21H437a2.81,2.81,0,0,1,2.38.66c1.62,1.79,3.26,3.55,5.37,5.85H432.92a1.79,1.79,0,0,1-1.41-.65Z" transform="translate(-209.14 -116)"/><path class="cls-15" d="M364.84,311.47l4.55-4.91a2.5,2.5,0,0,1,1.93-1c3.5,0,7,0,11.24,0-1.94,2.26-3.43,4-4.94,5.75a2.07,2.07,0,0,1-1.66.79c-3.61,0-7.21,0-10.82,0Z" transform="translate(-209.14 -116)"/><path class="cls-15" d="M363,306.28c-1.38,1.61-2.78,3.2-4.13,4.83a3,3,0,0,1-2.54,1.05c-3.41,0-6.81,0-10.63,0,1.52-2.59,3.54-4.28,5.33-6.15a2.32,2.32,0,0,1,1.5-.38c3.4,0,6.8,0,10.19,0Z" transform="translate(-209.14 -116)"/><path class="cls-16" d="M515.89,312.28a3.68,3.68,0,0,1-3.72-3.91,3.91,3.91,0,0,1,3.91-3.8,4,4,0,0,1,3.79,4A3.87,3.87,0,0,1,515.89,312.28Z" transform="translate(-209.14 -116)"/><path class="cls-17" d="M516,300.75a3.69,3.69,0,0,1-3.89-3.76,3.88,3.88,0,0,1,3.77-4,4,4,0,0,1,3.95,3.84A3.85,3.85,0,0,1,516,300.75Z" transform="translate(-209.14 -116)"/><path class="cls-18" d="M527.44,509.92H251c-.24-1.15.38-2.07.74-3q21.1-56.17,42.24-112.33c1.26-3.35.45-2.93,4.32-2.93h200.6a15.56,15.56,0,0,0,1.61,0c1.34-.14,1.83.47,2.1,1.76,1.3,6.32,2.73,12.61,4.09,18.92q10.26,47.63,20.5,95.27A3.8,3.8,0,0,1,527.44,509.92Z" transform="translate(-209.14 -116)"/><path class="cls-19" d="M393.61,297.25q-27.6,0-55.21,0c-1.34,0-3,.52-3.84-1s.4-2.63,1.09-3.78c3.16-5.25,6.43-10.44,9.48-15.75a4.42,4.42,0,0,1,4.41-2.45q44.23.08,88.46,0a4.19,4.19,0,0,1,4.15,2.32c3.16,5.5,6.46,10.92,9.7,16.37a9.62,9.62,0,0,1,.79,1.4c.59,1.52,0,2.56-1.57,2.82a16.37,16.37,0,0,1-2.58.06Z" transform="translate(-209.14 -116)"/><path class="cls-20" d="M310.25,288.44l9.69,1.65a2.5,2.5,0,0,1-1.31,1.37C313.19,295.08,313.19,295.08,310.25,288.44Z" transform="translate(-209.14 -116)"/><path class="cls-21" d="M320.47,274.24a30,30,0,0,1,2.46,5.72c-3.33,0-6.27-.81-9.6-1.44C315.63,276.58,318.07,275.59,320.47,274.24Z" transform="translate(-209.14 -116)"/><path class="cls-22" d="M396.55,432.44H306.47c-1,0-1.94,0-2.91,0-1.19,0-1.36-.73-1.37-1.7s.37-1.62,1.49-1.59c.75,0,1.51,0,2.26,0H487.06c.75,0,1.51,0,2.26,0,1.09,0,1.53.46,1.54,1.54s-.36,1.83-1.65,1.76c-1-.05-1.94,0-2.9,0Z" transform="translate(-209.14 -116)"/><path class="cls-23" d="M396.55,443.32H306.42c-.86,0-1.73,0-2.58,0-1.3.07-1.66-.59-1.64-1.78s.54-1.53,1.59-1.5c.75,0,1.51,0,2.26,0h180.9c.75,0,1.51,0,2.26,0,1.27-.06,1.68.58,1.65,1.78s-.53,1.54-1.59,1.51c-.86,0-1.72,0-2.58,0Z" transform="translate(-209.14 -116)"/><path class="cls-22" d="M396.55,467.83H306.42c-.86,0-1.72,0-2.58,0-1.29.06-1.66-.6-1.65-1.79s.55-1.53,1.59-1.52c.86,0,1.72,0,2.58,0H486.62c.86,0,1.72,0,2.58,0,1.27,0,1.68.6,1.65,1.79s-.53,1.54-1.59,1.51c-.86,0-1.72,0-2.58,0Z" transform="translate(-209.14 -116)"/><path class="cls-22" d="M396.54,478.08h89.81c1,0,1.94,0,2.91,0s1.58.39,1.6,1.52-.35,1.85-1.64,1.79c-.75,0-1.51,0-2.26,0H306c-.75,0-1.51,0-2.26,0-1.06,0-1.56-.41-1.6-1.51s.36-1.84,1.64-1.79c1,0,1.94,0,2.91,0Z" transform="translate(-209.14 -116)"/><path class="cls-24" d="M396.2,410.57H306.46c-.86,0-1.72,0-2.58,0-1.23.05-1.71-.49-1.7-1.73s.74-1.62,1.86-1.57c.75,0,1.51,0,2.26,0H487.07c.65,0,1.29,0,1.94,0,1.12-.05,1.85.24,1.86,1.57s-.47,1.78-1.7,1.73c-.86,0-1.72,0-2.58,0Z" transform="translate(-209.14 -116)"/><path class="cls-23" d="M396.57,417.62h90.06c.86,0,1.72,0,2.58,0,1.3-.07,1.65.61,1.63,1.79s-.53,1.54-1.58,1.52c-.75,0-1.51,0-2.26,0H305.93c-.75,0-1.51,0-2.26,0-1.13,0-1.47-.59-1.47-1.62s.24-1.69,1.41-1.67c1,0,1.94,0,2.9,0Z" transform="translate(-209.14 -116)"/></svg>