<?xml version="1.0" encoding="utf-8"?>
<!-- Generator: Adobe Illustrator 21.1.0, SVG Export Plug-In . SVG Version: 6.00 Build 0)  -->
<svg version="1.1" id="Layer_1" xmlns="http://www.w3.org/2000/svg" xmlns:xlink="http://www.w3.org/1999/xlink" x="0px" y="0px"
	 viewBox="0 0 464.3 390.6" style="enable-background:new 0 0 464.3 390.6;" xml:space="preserve">
<style type="text/css">
	.st0{display:none;fill:#FFFFFF;}
	.st1{display:none;}
	.st2{display:inline;opacity:0.5;fill:#09BAB5;stroke:#000000;stroke-width:0.25;stroke-miterlimit:10;enable-background:new    ;}
	.st3{display:inline;fill:url(#SVGID_1_);}
	.st4{display:inline;fill:#26A69A;}
	.st5{display:inline;fill:none;stroke:#26A69A;stroke-width:28;stroke-miterlimit:10;}
	.st6{display:inline;fill:none;stroke:#26A69A;stroke-width:30;stroke-miterlimit:10;}
	.st7{display:inline;fill:#26A69A;stroke:#FFFFFF;stroke-width:10;stroke-miterlimit:10;}
	.st8{display:inline;fill:#FFFFFF;}
	.st9{fill:none;stroke:#FFFFFF;stroke-width:20;stroke-miterlimit:10;}
	.st10{fill:#E5E5E5;}
	.st11{display:inline;fill:none;stroke:#D6E8E6;stroke-width:12;stroke-miterlimit:10;}
	.st12{display:inline;fill:none;stroke:#26A69A;stroke-width:20;stroke-miterlimit:10;}
	.st13{display:inline;fill:#26A69A;stroke:#FFFFFF;stroke-miterlimit:10;}
	.st14{display:inline;fill:#D6E8E6;}
	.st15{display:inline;fill:none;stroke:#7ECECE;stroke-width:20;stroke-miterlimit:10;}
	.st16{display:inline;fill:#7ECECE;}
	.st17{display:inline;}
	.st18{fill:#7ECECE;}
	.st19{display:none;fill:none;stroke:#7ECECE;stroke-miterlimit:10;}
</style>
<title>dashboard(ecris)</title>
<rect x="-3.4" y="-5.6" class="st0" width="475" height="406"/>
<g class="st1">
	<rect x="260.2" y="185.3" class="st2" width="65.6" height="164.3"/>
	<rect x="163.3" y="131.4" class="st2" width="70" height="218.2"/>
	<rect x="67.9" y="68.6" class="st2" width="73" height="281"/>
	<rect x="346.5" y="240.5" class="st2" width="62.6" height="109.1"/>
</g>
<g id="Layer_2" class="st1">
</g>
<g class="st1">
	
		<linearGradient id="SVGID_1_" gradientUnits="userSpaceOnUse" x1="72.8747" y1="1258.9059" x2="423" y2="1258.9059" gradientTransform="matrix(1 0 0 1 0 -1052)">
		<stop  offset="0" style="stop-color:#C6E0DC"/>
		<stop  offset="1" style="stop-color:#FFFFFF"/>
	</linearGradient>
	<path class="st3" d="M74.7,304H423c0,0-3.7-38.4-41.5-40c-38.7-1.7-67-72.3-97.7-75.9s-49.8,54.2-73.7,53.2
		c-31-1.4-51-126.1-76.1-130.7s-41.3,10.1-51.7,66.2C67.3,257.7,74.7,304,74.7,304z"/>
</g>
<g class="st1">
	<path class="st4" d="M44.8,354h-30V72.6c0-3.6,2.9-6.6,6.6-6.6h16.9c3.6,0,6.6,2.9,6.6,6.6L44.8,354L44.8,354z"/>
	<path class="st4" d="M14.8,354v-30h428.1c3.6,0,6.6,2.9,6.6,6.6v16.9c0,3.6-2.9,6.6-6.6,6.6H14.8V354z"/>
	<path class="st5" d="M422.7,304c-3.9-38.7-43.4-31.1-59.9-38.7c-24.7-11.3-51.4-72.3-89.3-70c-34.9,2.1-29.6,42.1-62.7,42.7
		c-38,0.7-34.7-123.3-82-123.3c-62,0-54.1,189.4-54.1,189.4"/>
</g>
<g class="st1">
	<path class="st4" d="M394.2,333.4l-8.4,10.1c-5,6.1-14,6.9-20.1,1.9L241.4,242.2l-1.7-1.4l26.6-32.1l1.7,1.4l124.4,103.1
		C398.4,318.3,399.2,327.3,394.2,333.4z"/>
	<circle class="st6" cx="182.3" cy="157.8" r="111.9"/>
	<path class="st4" d="M261,195.6C245.1,220,217.7,236,186.4,236c-49.3,0-89.1-39.9-89.1-89.1c0-6.6,0.7-13,2-19.2
		c9.8,48.5,52.6,85,103.9,85C224.6,212.7,244.4,206.4,261,195.6z"/>
</g>
<g class="st1">
	<path class="st4" d="M315.1,324.4H103.8c-5.4,0-9.8-4.4-9.8-9.8v-76.3c0-35.6,29.1-64.6,64.6-64.6h101.6
		c35.6,0,64.6,29.1,64.6,64.6v76.3C324.9,320,320.5,324.4,315.1,324.4z"/>
	<circle class="st4" cx="209.5" cy="85.8" r="81.4"/>
	<circle class="st7" cx="318.9" cy="276.9" r="109.1"/>
	<path class="st8" d="M226.1,282.8V271c0-9.3,7.6-17,17-17h153.6c9.3,0,17,7.6,17,17v11.8c0,9.3-7.6,17-17,17H243.1
		C233.7,299.8,226.1,292.1,226.1,282.8z"/>
	<path class="st8" d="M326.3,366.1H315c-9,0-16.3-7.3-16.3-16.3V202.5c0-9,7.3-16.3,16.3-16.3h11.3c9,0,16.3,7.3,16.3,16.3v147.3
		C342.6,358.8,335.2,366.1,326.3,366.1z"/>
</g>
<g>
	<path class="st9" d="M429,198.5v101.6h-44.8l0.7-59.6H80.6L80,300.1H34.6V198.5c0-17.1,13.9-31,31-31H398
		C415.1,167.5,429,181.4,429,198.5z"/>
	<path class="st10" d="M403.7,247.8H59.1v-14.6c0-11.3,9.2-20.5,20.5-20.5h303.6c11.3,0,20.5,9.2,20.5,20.5V247.8z"/>
	<rect x="80.3" y="16" class="st9" width="304.2" height="118.5"/>
	<rect x="80.3" y="240.5" class="st9" width="304.2" height="118.5"/>
</g>
<g class="st1">
	<path class="st4" d="M246.2,315l25.8,14.7c1.8,1,1.6,3.9-0.3,4.9l-29,16.4l-0.6-33.3C242.1,315.5,244.4,314,246.2,315z"/>
	<circle class="st11" cx="216.2" cy="193.8" r="114"/>
	<circle class="st11" cx="214.8" cy="195.9" r="84.8"/>
	<rect x="72" y="15" class="st12" width="286" height="362"/>
	<path class="st4" d="M384.2,140.4l-31.5-18.1c-0.7-0.4-1.7-0.1-2.1,0.7L244.1,308.9c-0.5,0.9-0.3,2,0.6,2.5l31.2,17.8
		c0.8,0.5,1.9,0.1,2.4-0.8l106.4-185.9C385.2,141.8,384.9,140.8,384.2,140.4z M256,310.4l-6.7-3.8l102.6-179.2l6.7,3.8L256,310.4z"
		/>
	<path class="st13" d="M385.2,140.2l-31.1-17.8c-0.9-0.5-1.2-1.6-0.7-2.5L368,94.5c3.3-5.7,10.6-7.7,16.4-4.5l13.4,7.7
		c5.7,3.3,7.7,10.6,4.5,16.4l-14.6,25.5C387.2,140.4,386,140.7,385.2,140.2z"/>
	<path class="st14" d="M220,250.3h-6.4c-22.3,0-40.5-18.2-40.5-40.5V151h87.4v58.8C260.5,232.1,242.3,250.3,220,250.3z"/>
	<rect x="198.1" y="215.2" transform="matrix(0.5 -0.866 0.866 0.5 -38.5344 372.6894)" class="st4" width="210.8" height="9"/>
</g>
<g class="st1">
	<polygon class="st15" points="357,328.7 104.3,328.7 104.3,59.3 308.3,59.3 357,108 	"/>
	<path class="st16" d="M302,169.3H154.7c-6,0-11-4.9-11-11v-2.7c0-6,4.9-11,11-11H302c6.1,0,11,4.9,11,11v2.7
		C313,164.4,308.1,169.3,302,169.3z"/>
	<path class="st16" d="M302,212.7H154.7c-6,0-11-4.9-11-11V199c0-6,4.9-11,11-11H302c6.1,0,11,4.9,11,11v2.7
		C313,207.7,308.1,212.7,302,212.7z"/>
	<path class="st16" d="M271.3,255.3H154.7c-6,0-11-4.9-11-11v-2.7c0-6,4.9-11,11-11h116.7c6,0,11,4.9,11,11v2.7
		C282.3,250.4,277.4,255.3,271.3,255.3z"/>
	<g class="st17">
		<path class="st18" d="M157.3,31.2H40.7v-28h116.7c6.6,0,12,5.4,12,12v4C169.3,25.8,163.9,31.2,157.3,31.2z"/>
		<path class="st18" d="M40.7,120.8V4.2h28v116.7c0,6.6-5.4,12-12,12h-4C46.1,132.8,40.7,127.4,40.7,120.8z"/>
		<path class="st18" d="M306.3,32.2H423v-28H306.3c-6.6,0-12,5.4-12,12v4C294.3,26.8,299.7,32.2,306.3,32.2z"/>
		<path class="st18" d="M423,121.8V5.2h-28v116.7c0,6.6,5.4,12,12,12h4C417.6,133.8,423,128.4,423,121.8z"/>
		<path class="st18" d="M306.3,362.7H423v28H306.3c-6.6,0-12-5.4-12-12v-4C294.3,368.1,299.7,362.7,306.3,362.7z"/>
		<path class="st18" d="M423,273v116.7h-28V273c0-6.6,5.4-12,12-12h4C417.6,261,423,266.4,423,273z"/>
		<path class="st18" d="M156.7,359.8H40v28h116.7c6.6,0,12-5.4,12-12v-4C168.7,365.2,163.3,359.8,156.7,359.8z"/>
		<path class="st18" d="M40,270.2v116.7h28V270.2c0-6.6-5.4-12-12-12h-4C45.4,258.2,40,263.6,40,270.2z"/>
	</g>
</g>
<path class="st19" d="M304.3,69.3"/>
</svg>
