<svg id="Layer_1" data-name="Layer 1" xmlns="http://www.w3.org/2000/svg" viewBox="0 0 123.81 124.05"><defs><style>.cls-1{fill:#02b5b5;}.cls-2{fill:#fdfdfd;}.cls-3{fill:#fefefe;}</style></defs><title>search and payment (eCRIS)</title><path class="cls-1" d="M442.37,293.21a42.25,42.25,0,0,1-6.25,22.42,1.12,1.12,0,0,0,.22,1.72c1.53,1.43,3,2.93,4.46,4.44a.85.85,0,0,0,1.3.18,2.66,2.66,0,0,1,3.44.58q15.68,15.73,31.35,31.47a11.89,11.89,0,0,1,3,12.21,11.08,11.08,0,0,1-8.59,8.27,11.92,11.92,0,0,1-11.81-3.21q-15.65-15.57-31.24-31.22c-1.49-1.49-1.59-2.57-.22-4.2.51-.61.1-.81-.22-1.14-1.48-1.49-3-2.94-4.43-4.46a1,1,0,0,0-1.59-.2,38.76,38.76,0,0,1-13.47,5.51c-16,3.09-29.63-1.57-40.6-13.49a40.71,40.71,0,0,1-10.94-31.86c1.37-17.36,14-32.65,30.71-37.62,24.53-7.29,48.92,9,53.92,32.46A44.86,44.86,0,0,1,442.37,293.21Z" transform="translate(-356.67 -250.85)"/><path class="cls-2" d="M399.53,256c20.87-.1,37.35,16.45,37.74,37.34.38,20.34-17.42,38.23-37.47,38.1-21.23-.14-37.9-16.4-38-37.48C361.74,272.63,378.16,256.1,399.53,256Z" transform="translate(-356.67 -250.85)"/><path class="cls-2" d="M433.69,323.22l.35.33c1.09,1.09,2.15,2.2,3.28,3.25.43.41.3.62,0,.95-1.17,1.14-2.34,2.3-3.47,3.48-.38.4-.6.35-.95,0q-1.52-1.59-3.11-3.12c-.4-.38-.5-.6,0-1a22.44,22.44,0,0,0,3.3-3.35C433.23,323.54,433.34,323.27,433.69,323.22Z" transform="translate(-356.67 -250.85)"/><path class="cls-1" d="M431.76,293.61C431.59,315.35,413.63,326,399.4,326a32.4,32.4,0,1,1,32.35-32.34Z" transform="translate(-356.67 -250.85)"/><path class="cls-3" d="M399.34,320.79c-15.33.13-27.42-13.2-27.34-27.39s12.54-27.42,27.92-27.09A27.73,27.73,0,0,1,427,294C426.86,308.56,414.13,320.9,399.34,320.79Z" transform="translate(-356.67 -250.85)"/><path d="M390.68,300q0-5.31,0-10.62c0-.21,0-.27-.26-.27-.51,0-1,0-1.54,0-.15,0-.21,0-.21-.2,0-.82,0-1.63,0-2.45,0-.16,0-.21.2-.2h1.61c.14,0,.19,0,.19-.18,0-.58,0-1.16,0-1.74,0-.15,0-.2-.18-.19h-1.61c-.15,0-.18,0-.18-.19q0-1.24,0-2.48c0-.16,0-.19.19-.19.51,0,1,0,1.54,0,.19,0,.25,0,.25-.25,0-2.18,0-4.36,0-6.55,0-.17,0-.25.22-.25,3.79,0,7.59,0,11.38,0a15.5,15.5,0,0,1,5.67,1,8.67,8.67,0,0,1,5.35,5.78.25.25,0,0,0,.3.21h1.76c.17,0,.24,0,.23.22,0,.81,0,1.62,0,2.43,0,.16,0,.21-.2.2H414c-.15,0-.19,0-.18.2q0,.87,0,1.74c0,.14,0,.18.17.18h1.32c.16,0,.22,0,.22.21,0,.82,0,1.63,0,2.45,0,.15,0,.19-.18.19h-1.8c-.11,0-.19,0-.23.15a9,9,0,0,1-6.73,6.32,19,19,0,0,1-5.12.6h-5.68c-.22,0-.29,0-.29.29q0,7.09,0,14.17c0,.21,0,.27-.26.27-1.46,0-2.92,0-4.38,0-.18,0-.24,0-.24-.24Q390.68,305.33,390.68,300Z" transform="translate(-356.67 -250.85)"/><path class="cls-3" d="M407.82,289.14a5.4,5.4,0,0,1-1.46,1.64,6.76,6.76,0,0,1-3.12,1.22,12.3,12.3,0,0,1-1.85.11h-5.63c-.17,0-.23,0-.23-.22,0-.86,0-1.72,0-2.57,0-.13,0-.2.17-.2h12Z" transform="translate(-356.67 -250.85)"/><path class="cls-3" d="M407.83,281.32h-12c-.19,0-.26,0-.25-.25,0-.84,0-1.68,0-2.52,0-.16,0-.2.2-.2,2.09,0,4.18,0,6.28,0a7.37,7.37,0,0,1,4.09,1.14A5.44,5.44,0,0,1,407.83,281.32Z" transform="translate(-356.67 -250.85)"/><path class="cls-3" d="M402.13,284.16h6.33c.19,0,.26,0,.27.25,0,.55,0,1.09,0,1.64,0,.16,0,.22-.22.22H395.73c-.16,0-.2,0-.2-.2,0-.56,0-1.13,0-1.69,0-.19,0-.23.23-.23Z" transform="translate(-356.67 -250.85)"/></svg>