<?xml version="1.0" encoding="utf-8"?>
<!-- Generator: Adobe Illustrator 21.1.0, SVG Export Plug-In . SVG Version: 6.00 Build 0)  -->
<svg version="1.1" id="Layer_1" xmlns="http://www.w3.org/2000/svg" xmlns:xlink="http://www.w3.org/1999/xlink" x="0px" y="0px"
	 viewBox="0 0 123.8 124.1" style="enable-background:new 0 0 123.8 124.1;" xml:space="preserve">
<style type="text/css">
	.st0{fill:#02B5B5;}
	.st1{fill:#FDFDFD;}
	.st2{fill:#FEFEFE;}
</style>
<title>search and payment (eCRIS)</title>
<path class="st0" d="M85.7,42.4c0.1,7.9-2.1,15.7-6.3,22.4c-0.4,0.4-0.4,1.2,0,1.6c0.1,0.1,0.1,0.1,0.2,0.1c1.5,1.4,3,2.9,4.5,4.4
	c0.2,0.4,0.8,0.5,1.2,0.3c0,0,0.1-0.1,0.1-0.1c1.1-0.7,2.6-0.4,3.4,0.6c10.5,10.5,20.9,21,31.4,31.5c3.2,3.2,4.4,7.9,3,12.2
	c-1,4.2-4.4,7.4-8.6,8.3c-4.2,1.2-8.8,0-11.8-3.2C92.4,110.1,82,99.7,71.6,89.2c-1.5-1.5-1.6-2.6-0.2-4.2c0.5-0.6,0.1-0.8-0.2-1.1
	c-1.5-1.5-3-2.9-4.4-4.5c-0.3-0.5-0.9-0.6-1.4-0.4c-0.1,0-0.2,0.1-0.2,0.2c-4.1,2.7-8.7,4.5-13.5,5.5C35.6,87.8,22,83.2,11,71.2
	C3,62.7-1,51.1,0.1,39.4C1.5,22,14.1,6.7,30.8,1.8c24.5-7.3,48.9,9,53.9,32.5C85.3,36.9,85.6,39.6,85.7,42.4z"/>
<path class="st1" d="M42.9,5.1C63.7,5,80.2,21.6,80.6,42.5C81,62.8,63.2,80.7,43.1,80.6c-21.2-0.1-37.9-16.4-38-37.5
	C5.1,21.8,21.5,5.3,42.9,5.1z"/>
<path class="st1" d="M77,72.4l0.4,0.3c1.1,1.1,2.1,2.2,3.3,3.3c0.4,0.4,0.3,0.6,0,1c-1.2,1.1-2.3,2.3-3.5,3.5c-0.4,0.4-0.6,0.4-1,0
	c-1-1.1-2-2.1-3.1-3.1c-0.4-0.4-0.5-0.6,0-1c1.2-1,2.3-2.1,3.3-3.4C76.6,72.7,76.7,72.4,77,72.4z"/>
<path class="st0" d="M75.1,42.8C74.9,64.5,57,75.1,42.7,75.1c-17.9,0-32.4-14.5-32.4-32.4c0-17.9,14.5-32.4,32.4-32.4
	S75.1,24.8,75.1,42.8C75.1,42.7,75.1,42.8,75.1,42.8L75.1,42.8z"/>
<path class="st2" d="M42.7,69.9c-15.3,0.1-27.4-13.2-27.3-27.4s12.5-27.4,27.9-27.1c15,0.4,27.1,12.6,27.1,27.7
	C70.2,57.7,57.5,70,42.7,69.9z"/>
<path d="M34,49.1c0-3.5,0-7.1,0-10.6c0-0.2,0-0.3-0.3-0.3c-0.5,0-1,0-1.5,0c-0.1,0-0.2,0-0.2-0.2c0-0.8,0-1.6,0-2.5
	c0-0.2,0-0.2,0.2-0.2h1.6c0.1,0,0.2,0,0.2-0.2c0-0.6,0-1.2,0-1.7c0-0.1,0-0.2-0.2-0.2h-1.6c-0.1,0-0.2,0-0.2-0.2c0-0.8,0-1.7,0-2.5
	c0-0.2,0-0.2,0.2-0.2c0.5,0,1,0,1.5,0c0.2,0,0.3,0,0.3-0.3c0-2.2,0-4.4,0-6.5c0-0.2,0-0.3,0.2-0.3c3.8,0,7.6,0,11.4,0
	c1.9,0,3.9,0.3,5.7,1c2.6,1,4.6,3.1,5.4,5.8c0,0.1,0.1,0.2,0.3,0.2c0,0,0,0,0,0h1.8c0.2,0,0.2,0,0.2,0.2c0,0.8,0,1.6,0,2.4
	c0,0.2,0,0.2-0.2,0.2h-1.4c-0.1,0-0.2,0-0.2,0.2c0,0.6,0,1.2,0,1.7c0,0.1,0,0.2,0.2,0.2h1.3c0.2,0,0.2,0,0.2,0.2c0,0.8,0,1.6,0,2.5
	c0,0.1,0,0.2-0.2,0.2h-1.8c-0.1,0-0.2,0-0.2,0.1c-0.9,3.2-3.5,5.6-6.7,6.3c-1.7,0.4-3.4,0.6-5.1,0.6h-5.7c-0.2,0-0.3,0-0.3,0.3
	c0,4.7,0,9.5,0,14.2c0,0.2,0,0.3-0.3,0.3c-1.5,0-2.9,0-4.4,0C34,60,34,60,34,59.8C34,56.2,34,52.7,34,49.1z"/>
<path class="st2" d="M51.1,38.3c-0.4,0.6-0.9,1.2-1.5,1.6c-0.9,0.7-2,1.1-3.1,1.2c-0.6,0.1-1.2,0.1-1.9,0.1h-5.6
	c-0.2,0-0.2,0-0.2-0.2c0-0.9,0-1.7,0-2.6c0-0.1,0-0.2,0.2-0.2h12L51.1,38.3z"/>
<path class="st2" d="M51.2,30.5h-12c-0.2,0-0.3,0-0.3-0.3c0-0.8,0-1.7,0-2.5c0-0.2,0-0.2,0.2-0.2c2.1,0,4.2,0,6.3,0
	c1.4,0,2.9,0.4,4.1,1.1C50.2,29.1,50.7,29.7,51.2,30.5z"/>
<path class="st2" d="M45.5,33.3h6.3c0.2,0,0.3,0,0.3,0.3c0,0.5,0,1.1,0,1.6c0,0.2,0,0.2-0.2,0.2H39.1c-0.2,0-0.2,0-0.2-0.2
	c0-0.6,0-1.1,0-1.7c0-0.2,0-0.2,0.2-0.2L45.5,33.3z"/>
</svg>
