<?xml version="1.0" encoding="utf-8"?>
<!-- Generator: Adobe Illustrator 21.1.0, SVG Export Plug-In . SVG Version: 6.00 Build 0)  -->
<svg version="1.1" id="Layer_1" xmlns="http://www.w3.org/2000/svg" xmlns:xlink="http://www.w3.org/1999/xlink" x="0px" y="0px"
	 viewBox="0 0 196.3 211" style="enable-background:new 0 0 196.3 211;" xml:space="preserve">
<style type="text/css">
	.st0{display:none;opacity:0.6;fill:#5B5B5B;enable-background:new    ;}
	.st1{display:none;fill:#B5AFAE;}
	.st2{display:none;fill:#C49187;}
	.st3{fill:#FFFFFF;}
</style>
<title>service provided(ecris)</title>
<path class="st0" d="M42,4.7h22.4c1.9,0,3.5,1.4,3.5,3.1v22.8H38.5V7.8C38.5,6.1,40,4.7,42,4.7z"/>
<path class="st0" d="M129.3,3.7h22.4c1.9,0,3.5,1.4,3.5,3.1v23.8h-29.4V6.8C125.8,5.1,127.4,3.7,129.3,3.7z"/>
<path class="st1" d="M189.9,44.7v19H3.4v-19c0-6.3,5.2-11.4,11.5-11.4h163.5C184.7,33.3,189.9,38.4,189.9,44.7z"/>
<path class="st2" d="M189.9,68.2v128.4c0,5.1-5.2,9.2-11.5,9.2H14.9c-6.4,0-11.5-4.1-11.5-9.2V68.2H189.9z"/>
<path class="st3" d="M43.5,2.4h22.4c1.9,0,3.5,1.4,3.5,3.1v20c0,1.5-1.2,2.8-2.8,2.8H42.8c-1.5,0-2.8-1.2-2.8-2.8v-20
	C40,3.8,41.5,2.4,43.5,2.4z"/>
<path class="st3" d="M130.8,2.4h22.4c1.9,0,3.5,1.4,3.5,3.1v20c0,1.5-1.2,2.8-2.8,2.8h-23.9c-1.5,0-2.8-1.2-2.8-2.8v-20
	C127.3,3.8,128.9,2.4,130.8,2.4z"/>
<path class="st3" d="M6,66.6v126.9c0,5,5.1,9.1,11.4,9.1H179c6.3,0,11.4-4.1,11.4-9.1V66.6H6z M91.2,175.6c-1.4,1.1-3.4,1.8-5.5,1.8
	H35c-4.3,0-7.8-2.7-7.8-6c0-1.7,0.9-3.2,2.3-4.3c1.4-1.1,3.3-1.8,5.5-1.8h50.7c4.3,0,7.8,2.7,7.8,6C93.5,173,92.6,174.5,91.2,175.6z
	 M137.4,154c-1.4,1.1-3.4,1.8-5.5,1.8h-97c-4.3,0-7.8-2.7-7.8-6c0-1.7,0.9-3.2,2.3-4.3c1.4-1.1,3.3-1.8,5.5-1.8h97
	c4.3,0,7.8,2.7,7.8,6C139.7,151.4,138.8,152.9,137.4,154z M154.3,129.3c-1.4,1.1-3.4,1.8-5.5,1.8H35.4c-4.3,0-7.8-2.7-7.8-6
	c0-1.7,0.9-3.2,2.3-4.3c1.4-1.1,3.4-1.8,5.5-1.8h113.4c4.3,0,7.8,2.7,7.8,6C156.6,126.7,155.7,128.2,154.3,129.3z M169.4,103.6
	c-1.4,1.1-3.4,1.8-5.5,1.8H33.6c-4.3,0-7.8-2.7-7.8-6c0-1.7,0.9-3.2,2.3-4.3c1.4-1.1,3.4-1.7,5.5-1.7h130.3c4.3,0,7.8,2.7,7.8,6
	C171.7,101,170.8,102.5,169.4,103.6z"/>
<path class="st3" d="M190.4,42.8v14c0,1.5-1.2,2.7-2.7,2.7H7.7c-1.5,0-2.7-1.2-2.7-2.7v-14c0-5.5,5.1-10,11.5-10H179
	C185.3,32.8,190.4,37.2,190.4,42.8z"/>
</svg>
