<?xml version="1.0" encoding="utf-8"?>
<!-- Generator: Adobe Illustrator 21.1.0, SVG Export Plug-In . SVG Version: 6.00 Build 0)  -->
<svg version="1.1" id="Layer_1" xmlns="http://www.w3.org/2000/svg" xmlns:xlink="http://www.w3.org/1999/xlink" x="0px" y="0px"
	 viewBox="0 0 196.3 211" style="enable-background:new 0 0 196.3 211;" xml:space="preserve">
<style type="text/css">
	.st0{opacity:0.6;fill:#5B5B5B;enable-background:new    ;}
	.st1{fill:#B5AFAE;}
	.st2{fill:#BAB6B5;}
	.st3{fill:#605D5D;enable-background:new    ;}
	.st4{fill:#FFFFFF;}
	.st5{fill:#BF5641;}
	.st6{opacity:0.35;stroke:#050505;stroke-width:0.75;stroke-miterlimit:10;enable-background:new    ;}
</style>
<title>service provided(ecris)</title>
<g>
	<path class="st0" d="M42,4.7h22.4c1.9,0,3.5,1.4,3.5,3.1v22.8H38.5V7.8C38.5,6.1,40,4.7,42,4.7z"/>
	<path class="st0" d="M129.3,3.7h22.4c1.9,0,3.5,1.4,3.5,3.1v23.8h-29.4V6.8C125.8,5.1,127.4,3.7,129.3,3.7z"/>
	<path class="st1" d="M189.9,44.7v19H3.4v-19c0-6.3,5.2-11.4,11.5-11.4h163.5C184.7,33.3,189.9,38.4,189.9,44.7z"/>
	<path class="st2" d="M189.9,68.2v128.4c0,5.1-5.2,9.2-11.5,9.2H14.9c-6.4,0-11.5-4.1-11.5-9.2V68.2H189.9z"/>
	<path class="st3" d="M43.5,2.4h22.4c1.9,0,3.5,1.4,3.5,3.1v22.8H40V5.5C40,3.8,41.5,2.4,43.5,2.4z"/>
	<path class="st3" d="M130.8,2.4h22.4c1.9,0,3.5,1.4,3.5,3.1v22.8h-29.4V5.5C127.3,3.8,128.9,2.4,130.8,2.4z"/>
	<path class="st4" d="M190.4,66.6v126.9c0,5-5.1,9.1-11.4,9.1H17.4c-6.3,0-11.4-4.1-11.4-9.1V66.6H190.4z"/>
	<path class="st5" d="M190.4,42.8v16.7H5V42.8c0-5.5,5.1-10,11.5-10h162.5C185.3,32.8,190.4,37.2,190.4,42.8z"/>
	<path class="st6" d="M28.7,73.1H166c4.5,0,8.2,3.7,8.2,8.2l0,0c0,4.5-3.7,8.2-8.2,8.2H28.7c-4.5,0-8.2-3.7-8.2-8.2l0,0
		C20.5,76.7,24.2,73.1,28.7,73.1z"/>
	<path class="st6" d="M30.6,108.1h119.5c4.5,0,8.2,3.7,8.2,8.2v0c0,4.5-3.7,8.2-8.2,8.2H30.6c-4.5,0-8.2-3.7-8.2-8.2v0
		C22.4,111.8,26.1,108.1,30.6,108.1z"/>
	<path class="st6" d="M30.1,141.7h102.2c4.5,0,8.2,3.7,8.2,8.2l0,0c0,4.5-3.7,8.2-8.2,8.2H30.1c-4.5,0-8.2-3.7-8.2-8.2l0,0
		C22,145.4,25.6,141.7,30.1,141.7z"/>
	<path class="st6" d="M30.2,171h53.4c4.5,0,8.2,3.7,8.2,8.2l0,0c0,4.5-3.7,8.2-8.2,8.2H30.2c-4.5,0-8.2-3.7-8.2-8.2l0,0
		C22.1,174.7,25.7,171,30.2,171z"/>
</g>
</svg>
