<svg id="Layer_1" data-name="Layer 1" xmlns="http://www.w3.org/2000/svg" viewBox="0 0 196.28 210.98"><defs><style>.cls-1,.cls-2,.cls-3,.cls-4{stroke:#050505;stroke-miterlimit:10;}.cls-1,.cls-3,.cls-4{stroke-width:0.75px;}.cls-1{opacity:0.6;}.cls-2{fill:#fff;stroke-width:2px;}.cls-3{fill:#a22900;}.cls-4{opacity:0.5;}</style></defs><title>service provided(ecris)</title><rect class="cls-1" x="37.55" y="0.38" width="30.6" height="30.6" rx="3.65" ry="3.65"/><rect class="cls-1" x="128.55" y="0.4" width="30.6" height="30.6" rx="3.65" ry="3.65"/><rect class="cls-2" x="1" y="29.98" width="194.28" height="180" rx="12" ry="12"/><path class="cls-3" d="M477,164.33v20H282.72v-20a12,12,0,0,1,12-12H465A12,12,0,0,1,477,164.33Z" transform="translate(-281.72 -122.35)"/><rect class="cls-4" x="17.28" y="76.65" width="160" height="17" rx="8.5" ry="8.5"/><rect class="cls-4" x="19.28" y="113.15" width="141.5" height="17" rx="8.5" ry="8.5"/><rect class="cls-4" x="18.78" y="148.15" width="123.5" height="17" rx="8.5" ry="8.5"/><rect class="cls-4" x="18.91" y="178.65" width="72.63" height="17" rx="8.5" ry="8.5"/></svg>