<?xml version="1.0" encoding="utf-8"?>
<!-- Generator: Adobe Illustrator 21.1.0, SVG Export Plug-In . SVG Version: 6.00 Build 0)  -->
<svg version="1.1" id="Layer_1" xmlns="http://www.w3.org/2000/svg" xmlns:xlink="http://www.w3.org/1999/xlink" x="0px" y="0px"
	 viewBox="0 0 363.9 493" style="enable-background:new 0 0 363.9 493;" xml:space="preserve">
<style type="text/css">
	.st0{fill:#848484;}
	.st1{fill:#FFFFFF;stroke:#A7A8A8;stroke-width:10;stroke-miterlimit:10;}
	.st2{fill:#008E99;}
	.st3{fill:none;stroke:#008E99;stroke-width:9;stroke-miterlimit:10;}
	.st4{fill:none;stroke:#848484;stroke-width:13;stroke-miterlimit:10;}
</style>
<path class="st0" d="M2.5,68.5h342.9v411.1c0,6.6-5.4,12-12,12H14.5c-6.6,0-12-5.4-12-12V68.5z"/>
<title>task(ecris)</title>
<path class="st1" d="M18,59.5h342.4v411.1c0,6.6-5.4,12-12,12H30c-6.6,0-12-5.4-12-12V59.5z"/>
<path class="st2" d="M111.7,32.8h154.8c7,0,12.7,5.4,12.7,12v53c0,0.5-0.5,1-1,1H100c-0.6,0-1-0.4-1-1v-53
	C99,38.2,104.7,32.8,111.7,32.8z"/>
<polyline class="st3" points="232.3,28.5 232.3,4.5 143.4,4.5 143.4,28.5 "/>
<rect x="154.1" y="177.5" class="st0" width="152.4" height="23"/>
<rect x="155.8" y="263.5" class="st0" width="153.4" height="23"/>
<rect x="155.8" y="350.5" class="st0" width="155.4" height="23"/>
<path class="st4" d="M81.6,140.6h37.9c6.6,0,12,5.4,12,12v37.9c0,6.6-5.4,12-12,12H81.6c-6.6,0-12-5.4-12-12v-37.9
	C69.6,145.9,75,140.6,81.6,140.6z"/>
<path class="st4" d="M83.5,230.1h34.9c6.6,0,12,5.4,12,12v35c0,6.6-5.4,12-12,12H83.5c-6.6,0-12-5.4-12-12v-35
	C71.6,235.5,76.9,230.1,83.5,230.1z"/>
<path class="st4" d="M86.6,321.1H120c6.6,0,12,5.4,12,12v33.5c0,6.6-5.4,12-12,12H86.6c-6.6,0-12-5.4-12-12v-33.5
	C74.6,326.5,80,321.1,86.6,321.1z"/>
</svg>
