<?xml version="1.0" encoding="utf-8"?>
<!-- Generator: Adobe Illustrator 21.1.0, SVG Export Plug-In . SVG Version: 6.00 Build 0)  -->
<svg version="1.1" id="Layer_1" xmlns="http://www.w3.org/2000/svg" xmlns:xlink="http://www.w3.org/1999/xlink" x="0px" y="0px"
	 viewBox="0 0 363.9 493" style="enable-background:new 0 0 363.9 493;" xml:space="preserve">
<style type="text/css">
	.st0{fill:#FFFFFF;}
	.st1{fill:none;stroke:#FFFFFF;stroke-width:9;stroke-miterlimit:10;}
</style>
<title>task(ecris)</title>
<path class="st0" d="M12,61.5v411.1c0,6.6,5.4,12,12,12h318.4c6.6,0,12-5.4,12-12V61.5H12z M63.6,154.6c0-6.7,5.4-12,12-12h37.9
	c6.6,0,12,5.4,12,12v37.9c0,6.6-5.4,12-12,12H75.6c-6.6,0-12-5.4-12-12V154.6z M65.5,244.1c0.1-6.6,5.4-12,12-12h34.9
	c6.6,0,12,5.4,12,12v35c0,6.6-5.4,12-12,12H77.5c-6.6,0-12-5.4-12-12V244.1z M126,368.6c0,6.6-5.4,12-12,12H80.6
	c-6.6,0-12-5.4-12-12v-33.5c0-6.6,5.4-12,12-12H114c6.6,0,12,5.4,12,12V368.6z M148.1,179.5h152.4v23H148.1V179.5z M303.2,265.5v23
	H149.8v-23H303.2z M305.2,375.5H149.8v-23h155.4V375.5z"/>
<path class="st0" d="M105.7,34.8h154.8c7,0,12.7,5.4,12.7,12v53c0,0.5-0.5,1-1,1H94c-0.6,0-1-0.4-1-1v-53
	C93,40.2,98.7,34.8,105.7,34.8z"/>
<polyline class="st1" points="226.3,30.5 226.3,6.5 137.4,6.5 137.4,30.5 "/>
</svg>
