<?xml version="1.0" encoding="utf-8"?>
<!-- Generator: Adobe Illustrator 21.1.0, SVG Export Plug-In . SVG Version: 6.00 Build 0)  -->
<svg version="1.1" id="Layer_1" xmlns="http://www.w3.org/2000/svg" xmlns:xlink="http://www.w3.org/1999/xlink" x="0px" y="0px"
	 viewBox="0 0 363.9 493" style="enable-background:new 0 0 363.9 493;" xml:space="preserve">
<style type="text/css">
	.st0{fill:#A9AAAA;}
	.st1{fill:#FFFFFF;stroke:#A7AAAA;stroke-width:7;stroke-miterlimit:10;}
	.st2{fill:#FFFFFF;stroke:#008E99;stroke-width:14;stroke-miterlimit:10;}
	.st3{fill:none;stroke:#008E99;stroke-width:9;stroke-miterlimit:10;}
	.st4{fill:#848484;}
	.st5{fill:none;stroke:#848484;stroke-width:13;stroke-miterlimit:10;}
</style>
<path class="st0" d="M3.5,65.5h342.9v411.1c0,6.6-5.4,12-12,12H15.5c-6.6,0-12-5.4-12-12V65.5z"/>
<title>task(ecris)</title>
<path class="st1" d="M10.5,59.5h342.9v411.1c0,6.6-5.4,12-12,12H22.5c-6.6,0-12-5.4-12-12V59.5z"/>
<path class="st2" d="M108.1,32.8h146c6.6,0,12,5.4,12,12v53c0,0.5-0.4,1-1,1h-168c-0.5,0-1-0.4-1-1v-53
	C96.1,38.2,101.5,32.8,108.1,32.8z"/>
<polyline class="st3" points="223.1,28.5 223.1,4.5 141.1,4.5 141.1,28.5 "/>
<rect x="146.8" y="177.5" class="st4" width="152.7" height="23"/>
<rect x="148.5" y="263.5" class="st4" width="153.7" height="23"/>
<rect x="148.5" y="350.5" class="st4" width="155.7" height="23"/>
<path class="st5" d="M74.2,140.6h38c6.6,0,12,5.4,12,12v37.9c0,6.6-5.4,12-12,12h-38c-6.6,0-12-5.4-12-12v-37.9
	C62.2,145.9,67.6,140.6,74.2,140.6z"/>
<path class="st5" d="M76.1,230.1h35c6.6,0,12,5.4,12,12v35c0,6.6-5.4,12-12,12h-35c-6.6,0-12-5.4-12-12v-35
	C64.1,235.5,69.5,230.1,76.1,230.1z"/>
<path class="st5" d="M79.2,321.1h33.5c6.6,0,12,5.4,12,12v33.5c0,6.6-5.4,12-12,12H79.2c-6.6,0-12-5.4-12-12v-33.5
	C67.2,326.5,72.6,321.1,79.2,321.1z"/>
</svg>
