<svg id="Layer_1" data-name="Layer 1" xmlns="http://www.w3.org/2000/svg" viewBox="0 0 376.48 379.57"><defs><style>.cls-1{fill:#00a7c9;}</style></defs><title>SFSAFSAGG</title><path class="cls-1" d="M349.78,225.95l31.73-30.39S436,317.17,310.64,400.7c-21.58,14.38-51.81,20.42-77.39,21.3-48.46,1.66-92.44-19.31-124.36-55.19C92,347.86,79.7,328,73.63,303.32a198.22,198.22,0,0,1-5.85-51.4c1-47.2,22.22-90.07,58.12-120.6,0,0,48-36.63,97.61-37.69L224,55l59.28,60.79-60.36,58.87.53-42.4s-108.81,4.51-117,122.82c0,0-6.65,128.4,139.51,125.2C246,380.29,371,367.86,349.78,225.95Z" transform="translate(-67.74 -42.52)"/><polygon class="cls-1" points="128.48 202.65 177.19 251.36 348.49 77.25 299.79 29.11 128.48 202.65"/><polygon class="cls-1" points="115.75 215.81 163.52 263.58 131.7 271.65 107.77 247.72 115.75 215.81"/><polygon class="cls-1" points="106.65 253.88 125.41 272.91 99.65 279.07 106.65 253.88"/><path class="cls-1" d="M428,108,379,60.15,396.21,44a5.36,5.36,0,0,1,3.67-1.46h5.5A5.36,5.36,0,0,1,409.11,44l33.48,32.46a5.36,5.36,0,0,1,1.63,3.85v9.48a5.36,5.36,0,0,1-1.6,3.82Z" transform="translate(-67.74 -42.52)"/></svg>