<?xml version="1.0" encoding="utf-8"?>
<!-- Generator: Adobe Illustrator 21.1.0, SVG Export Plug-In . SVG Version: 6.00 Build 0)  -->
<svg version="1.1" id="Layer_1" xmlns="http://www.w3.org/2000/svg" xmlns:xlink="http://www.w3.org/1999/xlink" x="0px" y="0px"
	 viewBox="0 0 376.5 379.6" style="enable-background:new 0 0 376.5 379.6;" xml:space="preserve">
<style type="text/css">
	.st0{fill:#FFFFFF;}
</style>
<title>SFSAFSAGG</title>
<path class="st0" d="M282,183.4l31.7-30.4c0,0,54.5,121.6-70.9,205.1c-21.6,14.4-51.8,20.4-77.4,21.3
	c-48.5,1.7-92.4-19.3-124.4-55.2c-16.9-19-29.2-38.8-35.3-63.5C1.7,244-0.3,226.7,0,209.4c1-47.2,22.2-90.1,58.1-120.6
	c0,0,48-36.6,97.6-37.7l0.5-38.6l59.3,60.8l-60.4,58.9l0.5-42.4c0,0-108.8,4.5-117,122.8c0,0-6.7,128.4,139.5,125.2
	C178.3,337.8,303.3,325.3,282,183.4z"/>
<polygon class="st0" points="128.5,202.6 177.2,251.4 348.5,77.3 299.8,29.1 "/>
<polygon class="st0" points="115.8,215.8 163.5,263.6 131.7,271.6 107.8,247.7 "/>
<polygon class="st0" points="106.7,253.9 125.4,272.9 99.7,279.1 "/>
<path class="st0" d="M360.3,65.5l-49-47.8l17.2-16.2c1-0.9,2.3-1.5,3.7-1.5h5.5c1.4,0,2.7,0.5,3.7,1.5l33.5,32.5
	c1,1,1.6,2.4,1.6,3.8v9.5c0,1.4-0.6,2.8-1.6,3.8L360.3,65.5z"/>
</svg>
