<svg id="Layer_1" data-name="Layer 1" xmlns="http://www.w3.org/2000/svg" viewBox="0 0 296.31 88.85"><defs><style>.cls-1{fill:none;stroke:#0da7c9;stroke-miterlimit:10;stroke-width:4px;opacity:0.9;}.cls-2{font-size:37.17px;fill:#0da7c9;font-family:MyriadPro-Bold, Myriad Pro;font-weight:700;}.cls-3{letter-spacing:-0.02em;}.cls-4{letter-spacing:-0.08em;}.cls-5{fill:#00a7c9;}</style></defs><title>UPDATE3</title><rect class="cls-1" x="2" y="2" width="292.31" height="84.85"/><text class="cls-2" transform="translate(120.51 57.02)">UP<tspan class="cls-3" x="46.95" y="0">D</tspan><tspan class="cls-4" x="72.23" y="0">A</tspan><tspan x="93.53" y="0">TE</tspan></text><path class="cls-5" d="M168,223.25l4.9-4.81s8.74,18.89-10.67,32.18c-3.34,2.29-8.05,3.29-12,3.48a24.69,24.69,0,0,1-19.53-8.38,22.81,22.81,0,0,1-5.63-9.84,31,31,0,0,1-1-8,25.26,25.26,0,0,1,8.84-18.95s7.43-5.81,15.17-6.08v-6l9.38,9.38-9.31,9.31v-6.62s-17,.92-18,19.41c0,0-.79,20.07,22,19.28C152.08,247.56,171.57,245.38,168,223.25Z" transform="translate(-89.68 -182.06)"/><polygon class="cls-5" points="54.35 44.43 61.96 52.04 88.71 24.85 81.1 17.33 54.35 44.43"/><polygon class="cls-5" points="52.36 46.49 59.82 53.95 54.85 55.21 51.11 51.47 52.36 46.49"/><polygon class="cls-5" points="50.94 52.43 53.87 55.4 49.85 56.37 50.94 52.43"/><path class="cls-5" d="M180.23,205.07l-7.65-7.48,2.69-2.53a.84.84,0,0,1,.57-.23h.86a.84.84,0,0,1,.58.24l5.23,5.07a.84.84,0,0,1,.25.6v1.48a.84.84,0,0,1-.25.6Z" transform="translate(-89.68 -182.06)"/></svg>