<svg xmlns="http://www.w3.org/2000/svg" xmlns:xlink="http://www.w3.org/1999/xlink" viewBox="0 0 283.09 282.15"><defs><style>.cls-1{fill:#06c3ef;}.cls-1,.cls-15{stroke:#000;stroke-miterlimit:10;}.cls-2{fill:#585959;}.cls-3{fill:#fdfeff;}.cls-17,.cls-29,.cls-4,.cls-9{opacity:0.2;}.cls-4{fill:url(#linear-gradient);}.cls-5{fill:url(#linear-gradient-2);}.cls-6{fill:url(#linear-gradient-3);}.cls-7{fill:#3f3f3f;}.cls-8{fill:#bf0000;}.cls-16,.cls-9{fill:#0f0f0f;}.cls-10{fill:#840606;}.cls-11{fill:#191919;}.cls-12{fill:#383838;}.cls-13{fill:url(#linear-gradient-4);}.cls-14{fill:#020202;opacity:0.7;}.cls-15{fill:#fff;}.cls-17{fill:#fcfcfc;}.cls-18{fill:#8e0d0d;}.cls-19{fill:url(#linear-gradient-5);}.cls-20{fill:url(#linear-gradient-6);}.cls-21{fill:url(#linear-gradient-7);}.cls-22{fill:#7f001b;}.cls-23{fill:#5a310a;}.cls-24,.cls-35{opacity:0.5;}.cls-25{fill:#fcf7f8;}.cls-26{fill:#774d1c;}.cls-27{fill:url(#linear-gradient-8);}.cls-28{fill:#0c6689;}.cls-29{fill:url(#linear-gradient-9);}.cls-30{fill:url(#linear-gradient-10);}.cls-31{fill:url(#linear-gradient-11);}.cls-32{fill:#05416d;}.cls-33{fill:#022947;}.cls-34{fill:url(#linear-gradient-12);}.cls-35{fill:#0a0a0a;}</style><linearGradient id="linear-gradient" x1="211.92" y1="139.34" x2="210.3" y2="168.05" gradientTransform="matrix(-1, 0, 0, 1, 410.75, 0)" gradientUnits="userSpaceOnUse"><stop offset="0" stop-color="#020202"/><stop offset="0.11" stop-color="#211208"/><stop offset="0.27" stop-color="#4c2811"/><stop offset="0.52" stop-color="#87461d"/><stop offset="0.74" stop-color="#b35c26"/><stop offset="0.9" stop-color="#ce6a2c"/><stop offset="1" stop-color="#d86f2e"/></linearGradient><linearGradient id="linear-gradient-2" x1="198.31" y1="164.86" x2="211.29" y2="154.9" gradientTransform="matrix(-1, 0, 0, 1, 410.75, 0)" gradientUnits="userSpaceOnUse"><stop offset="0" stop-color="#fff"/><stop offset="1" stop-color="#d86f2e"/></linearGradient><linearGradient id="linear-gradient-3" x1="203.6" y1="94.1" x2="218.53" y2="160.69" gradientTransform="matrix(-1, 0, 0, 1, 402.3, -9.43)" xlink:href="#linear-gradient-2"/><linearGradient id="linear-gradient-4" x1="230.7" y1="95.52" x2="224.02" y2="122.15" gradientTransform="matrix(-0.93, 0.38, 0.38, 0.93, 343.1, -56.74)" xlink:href="#linear-gradient-2"/><linearGradient id="linear-gradient-5" x1="65.08" y1="151.95" x2="121.22" y2="124.66" gradientTransform="matrix(1, 0, 0, 1, 0, 0)" xlink:href="#linear-gradient-2"/><linearGradient id="linear-gradient-6" x1="670.26" y1="134.78" x2="683.24" y2="124.83" gradientTransform="translate(-581.37)" xlink:href="#linear-gradient-2"/><linearGradient id="linear-gradient-7" x1="675.56" y1="64.03" x2="690.49" y2="130.62" gradientTransform="translate(-589.82 -9.43)" xlink:href="#linear-gradient-2"/><linearGradient id="linear-gradient-8" x1="656.56" y1="-110.13" x2="649.88" y2="-83.49" gradientTransform="matrix(0.93, 0.38, -0.38, 0.93, -513.71, -56.74)" xlink:href="#linear-gradient-2"/><linearGradient id="linear-gradient-9" x1="139.32" y1="162.77" x2="137.69" y2="191.48" gradientTransform="matrix(1, 0, 0, 1, 0, 0)" xlink:href="#linear-gradient"/><linearGradient id="linear-gradient-10" x1="125.7" y1="188.29" x2="138.68" y2="178.33" gradientTransform="matrix(1, 0, 0, 1, 0, 0)" xlink:href="#linear-gradient-2"/><linearGradient id="linear-gradient-11" x1="122.54" y1="108.1" x2="137.47" y2="174.7" gradientTransform="matrix(1, 0, 0, 1, 0, 0)" xlink:href="#linear-gradient-2"/><linearGradient id="linear-gradient-12" x1="172.27" y1="144.57" x2="165.58" y2="171.21" gradientTransform="matrix(0.93, 0.38, -0.38, 0.93, 67.65, -56.74)" xlink:href="#linear-gradient-2"/></defs><title>USERLOGO</title><g id="bg"><ellipse class="cls-1" cx="141.54" cy="141.07" rx="141.04" ry="140.57"/></g><g id="p1"><path id="body" class="cls-2" d="M243.21,204.32s3.38-39.4-24.76-51.28a46.24,46.24,0,0,0-18.16-3.35c-9.26,0-16.79,1.48-22.92,4-25.4,10.34-26.75,38.15-27,50.65C150.17,219.84,214.23,241.79,243.21,204.32Z" transform="translate(-8.46 -9.43)"/><path class="cls-3" d="M225.37,156.75l-24.77,45.67-26.35-47.36S201.19,140.86,225.37,156.75Z" transform="translate(-8.46 -9.43)"/><path class="cls-4" d="M224,159.52c-.05.12-21.77,16.08-21.77,16.08l-24.29-13.66-3.67-6.87a62.82,62.82,0,0,1,51.07,1.8Z" transform="translate(-8.46 -9.43)"/><path class="cls-5" d="M211.81,150.67v8.48s-13.37,8.39-24.66,0v-8.22Z" transform="translate(-8.46 -9.43)"/><ellipse id="head" class="cls-6" cx="191.26" cy="117.85" rx="26.54" ry="28.18"/><path class="cls-7" d="M156.25,173.86s-6.7,14.94-5.82,30.46,42,22.23,44.81,20.64c0,0,19.58-.56,27.83-5,0,0-40.11,14.05-68.21-10.8C154.86,209.11,147.89,207.93,156.25,173.86Z" transform="translate(-8.46 -9.43)"/><polygon class="cls-8" points="202.95 173.06 195.33 163.35 190.64 163.35 180.97 172.93 192.14 193 202.95 173.06"/><path class="cls-8" d="M210.06,168.12c-.17.13-8.81-8.38-19.07,0v1.38a15.8,15.8,0,0,0,2.19,3.28,28.18,28.18,0,0,0,7.75,6.37s7.88-5.43,9.13-9.65Z" transform="translate(-8.46 -9.43)"/><path class="cls-9" d="M226,131.32s-1.66,17.28-18.47,22.89c-13.38,4.47-23.67-3.74-26.31-6.74a30.4,30.4,0,0,1-6.25-10s4.51,9.51,11.64,13.6a25.85,25.85,0,0,0,25.14.62C218.22,148.19,222.89,143,226,131.32Z" transform="translate(-8.46 -9.43)"/><path class="cls-10" d="M193.19,172.78s4.07,5,7.75,6.37c0,0,5.93-4.46,6.22-5.29,0,0-4.83,4.19-6.19,4.85C201,178.71,198.54,178,193.19,172.78Z" transform="translate(-8.46 -9.43)"/><polygon class="cls-11" points="192.14 193 165.78 145.64 192.07 196.78 216.91 147.33 192.14 193"/><path class="cls-12" d="M220,96.73s4,13.63-15.22,12.2S176.81,116.8,175,137.45c0,0-8.39-7.19-9.1-16.91S167.29,98,181.08,91.28c12.19-6,27.45-6.48,35.92,1.76A19.13,19.13,0,0,1,220,96.73Z" transform="translate(-8.46 -9.43)"/><path class="cls-12" d="M220,96.73s10.34.47,10.22,16c0,0-.24,7-5.59,10.07,0,0-1.9-11.61-8.92-15.88C215.67,106.92,220.07,97.91,220,96.73Z" transform="translate(-8.46 -9.43)"/><path class="cls-13" d="M177.2,125.55a10.28,10.28,0,0,0-3.05-3.56c-2.61-1.76-5.84.14-6.62,3a5.32,5.32,0,0,0-.15,1.06c-.16,2.57.27,5.63,2.16,7.55,3,3,5,6.21,7.5,3.29" transform="translate(-8.46 -9.43)"/><path class="cls-14" d="M177,136.94a3.59,3.59,0,0,1-3,.3,28.26,28.26,0,0,1-4.48-3.59s3.58,4.22,5,4.38C175.07,138.08,175.66,138.46,177,136.94Z" transform="translate(-8.46 -9.43)"/><path class="cls-14" d="M173.84,129.73s.75,2.32,1.52,1.91,1.38-3.37-.59-5.45-4.26-3.36-5.62,0,3.13,2.57,3.13,2.57A1.51,1.51,0,0,1,173.84,129.73Z" transform="translate(-8.46 -9.43)"/><path class="cls-15" d="M218.58,94.78" transform="translate(-8.46 -9.43)"/><path class="cls-16" d="M216.09,107.18" transform="translate(-8.46 -9.43)"/><path class="cls-17" d="M214.23,92.66S191.57,79,170.55,102.12C170.55,102.12,187.9,82.95,214.23,92.66Z" transform="translate(-8.46 -9.43)"/><path class="cls-17" d="M212.22,98.35s-23.8-11.53-42.64,13.35C169.58,111.7,185.12,91,212.22,98.35Z" transform="translate(-8.46 -9.43)"/><path class="cls-17" d="M217.14,102.81a17.18,17.18,0,0,1-10,2.79c-6-.14-12.64-2.33-19,4,0,0,6.89-5,15-3.17C210.89,108.11,217.06,102.31,217.14,102.81Z" transform="translate(-8.46 -9.43)"/><path class="cls-17" d="M221.38,99.1s9.08,4.63,6.93,17.6C228.31,116.7,232.49,104.59,221.38,99.1Z" transform="translate(-8.46 -9.43)"/></g><g id="p3"><path id="body-2" data-name="body" class="cls-18" d="M58.13,174.24S54.75,134.85,82.89,123A46.24,46.24,0,0,1,101,119.62c9.26,0,16.79,1.48,22.92,4,25.4,10.34,26.75,38.15,27,50.65C151.17,189.76,87.12,211.72,58.13,174.24Z" transform="translate(-8.46 -9.43)"/><path class="cls-19" d="M77.16,126.81l23.72,27.67,25-29S101.63,109.7,77.16,126.81Z" transform="translate(-8.46 -9.43)"/><path class="cls-20" d="M89.54,120.59v8.48s13.37,8.39,24.66,0v-8.22Z" transform="translate(-8.46 -9.43)"/><ellipse id="head-2" data-name="head" class="cls-21" cx="93.18" cy="87.78" rx="26.54" ry="28.18"/><path class="cls-22" d="M145.1,143.79s6.7,14.94,5.82,30.46-42,22.23-44.81,20.64c0,0-19.58-.56-27.83-5,0,0,40.11,14.05,68.21-10.8C146.49,179,153.46,177.86,145.1,143.79Z" transform="translate(-8.46 -9.43)"/><path class="cls-9" d="M75.36,101.25S77,118.53,93.83,124.14c13.38,4.47,23.67-3.74,26.31-6.74a30.4,30.4,0,0,0,6.25-10s-4.51,9.51-11.64,13.6a25.85,25.85,0,0,1-25.14.62C83.12,118.11,78.45,112.89,75.36,101.25Z" transform="translate(-8.46 -9.43)"/><path class="cls-15" d="M82.77,64.7" transform="translate(-8.46 -9.43)"/><path class="cls-16" d="M85.26,77.11" transform="translate(-8.46 -9.43)"/><path class="cls-23" d="M91.12,67.67s0,14.53-12.53,17.45c0,0-10.25,22.36,9,36.1a54.58,54.58,0,0,0-8.5,4.35c-5.55,3.4-9.13,7.58-13.28,12.36-.46-3.35.48-7.42.74-10.83q.44-5.83.82-11.67c.48-7.62.83-15.24.93-22.88.1-8.08,0-16.58,5-23.37C78.06,62.7,85.31,61.86,91.12,67.67Z" transform="translate(-8.46 -9.43)"/><path class="cls-12" d="M87.58,73.3" transform="translate(-8.46 -9.43)"/><path class="cls-23" d="M87.58,73.3S86.05,85.06,108.3,84.17c0,0,13.93-1.17,16,11,0,0,2.12-3.66,3.35-3.54,0,0,3.13-1.78,5.46,1.78s-.53,9.17-.53,9.17-2.7,3.85-4.42,4.63a2.56,2.56,0,0,1-2,.81s-4,9.91-10.24,12.93c0,0,19.53,7.2,24.88,15.55q-1.11-10.82-2.09-21.66c-.51-5.63-1-11.27-1.42-16.91-.45-6.11.17-12.7-1-18.66S130.68,68,126.11,64c-8.28-7.22-18.33-8.22-28.47-4.77C90.37,61.68,87.89,66.1,87.58,73.3Z" transform="translate(-8.46 -9.43)"/><path class="cls-24" d="M100.87,154.48,118,139.34s10.62-2.89,13.45,2.83l.36-1.58-1.35-4.53-11.8-.66-8.51,7.36Z" transform="translate(-8.46 -9.43)"/><path class="cls-25" d="M114.2,129.07l-13.32,25.4,16.4-16.55s10.88-3.91,14.54,2.66c0,0,1.72-17.82-15.91-19.62L114.17,122Z" transform="translate(-8.46 -9.43)"/><path class="cls-24" d="M100.87,154.48,84.47,138.39S73,135.72,72,139.86c0,0-3.5,3.69-1.3-.86s1.3-4.46,1.3-4.46l6.27-.89,9.75,3.7Z" transform="translate(-8.46 -9.43)"/><path class="cls-25" d="M88.9,128.42l12,26.06L85.36,137.1S74.7,132.63,70.7,139c0,0-.64-17.21,16.91-18.77l1.68,1.16Z" transform="translate(-8.46 -9.43)"/><path class="cls-26" d="M94.06,65.44s24.48-13.7,38.4,10.25C132.46,75.69,121.06,49.67,94.06,65.44Z" transform="translate(-8.46 -9.43)"/><path class="cls-26" d="M91.12,75.69s9.41,6.39,18.9,4.49,14.29,7.7,14.29,7.7-4.93-8.28-13.63-7S94.66,78.09,91.12,75.69Z" transform="translate(-8.46 -9.43)"/><path class="cls-26" d="M98.15,65.67S122,53.35,133.36,81.79c0,0-5.26-9.41-7.44-10.33s0,1.84,0,1.84-.87-1.19-4.56-3,2.66,1.45,5,5.91c0,0-6.61-7-12.21-7.16S102,69.09,100,71.19c0,0,2.9-2.91,6.46-3.16a8.1,8.1,0,0,0-8.31,4.37s1.94-5.55,6.31-5.55S102.9,63.44,98.15,65.67Z" transform="translate(-8.46 -9.43)"/><path class="cls-26" d="M86,65.61S68,61.12,70,97.83C70,97.83,67.58,65.88,86,65.61Z" transform="translate(-8.46 -9.43)"/><path class="cls-26" d="M85.26,66.87s-10.38.35-13.45,16.91C71.81,83.78,75.23,69,85.26,66.87Z" transform="translate(-8.46 -9.43)"/><path class="cls-26" d="M69.82,98.37s-1.57,29.37-2.37,32c0,0,3.52-20.5,3.24-24.35l1.21,4.44s-1.32-11.83.92-14.33a10.16,10.16,0,0,0-2.13,6.18A13.86,13.86,0,0,1,69.82,98.37Z" transform="translate(-8.46 -9.43)"/><path class="cls-26" d="M136.06,103.13l3.56,29.67s-1.85-13.64-3-14.36-.59,2.15-.59,2.15-1-3.4-.12-4.71S136.52,107.27,136.06,103.13Z" transform="translate(-8.46 -9.43)"/><path class="cls-26" d="M133.36,104.9s1.78,5.85,1.45,9.27c0,0,.07-8.21-1.45-11.37a3.09,3.09,0,0,0-.53,2.37S133.1,104,133.36,104.9Z" transform="translate(-8.46 -9.43)"/><path class="cls-27" d="M124.14,95.48a10.28,10.28,0,0,1,3.05-3.56c2.61-1.76,5.84.14,6.62,3A5.32,5.32,0,0,1,134,96c.16,2.57-.27,5.63-2.16,7.55-3,3-5,6.21-7.5,3.29" transform="translate(-8.46 -9.43)"/><path class="cls-14" d="M124.31,106.86a3.59,3.59,0,0,0,3,.3,28.26,28.26,0,0,0,4.48-3.59s-3.58,4.22-5,4.38C126.27,108,125.69,108.38,124.31,106.86Z" transform="translate(-8.46 -9.43)"/><path class="cls-14" d="M127.51,99.66s-.75,2.32-1.52,1.91-1.38-3.37.59-5.45,4.26-3.36,5.62,0-3.13,2.57-3.13,2.57A1.51,1.51,0,0,0,127.51,99.66Z" transform="translate(-8.46 -9.43)"/></g><g id="p2"><path id="body-3" data-name="body" class="cls-28" d="M94.93,227.75s-3.38-39.4,24.76-51.28a46.24,46.24,0,0,1,18.16-3.35c9.26,0,16.79,1.48,22.92,4,25.4,10.34,26.75,38.15,27,50.65C188,243.27,123.92,265.22,94.93,227.75Z" transform="translate(-8.46 -9.43)"/><path class="cls-3" d="M112.78,180.18l24.77,45.67,26.35-47.36S137,164.29,112.78,180.18Z" transform="translate(-8.46 -9.43)"/><path class="cls-29" d="M114.18,182.95c.05.12,21.77,16.08,21.77,16.08l24.29-13.66,3.67-6.87a62.82,62.82,0,0,0-51.07,1.8Z" transform="translate(-8.46 -9.43)"/><path class="cls-30" d="M126.34,174.1v8.48s13.37,8.39,24.66,0v-8.22Z" transform="translate(-8.46 -9.43)"/><ellipse id="head-3" data-name="head" class="cls-31" cx="129.98" cy="141.28" rx="26.54" ry="28.18"/><path class="cls-32" d="M181.9,197.29s6.7,14.94,5.82,30.46-42,22.23-44.81,20.64c0,0-19.58-.56-27.83-5,0,0,40.11,14.05,68.21-10.8C183.29,232.54,190.26,231.36,181.9,197.29Z" transform="translate(-8.46 -9.43)"/><polygon class="cls-8" points="118.28 196.49 125.91 186.78 130.59 186.78 140.26 196.36 129.1 216.43 118.28 196.49"/><path class="cls-8" d="M128.08,191.55c.17.13,8.81-8.38,19.07,0v1.38a15.8,15.8,0,0,1-2.19,3.28,28.18,28.18,0,0,1-7.75,6.37s-7.88-5.43-9.13-9.65Z" transform="translate(-8.46 -9.43)"/><path class="cls-9" d="M112.17,154.75s1.66,17.28,18.47,22.89c13.38,4.47,23.67-3.74,26.31-6.74a30.4,30.4,0,0,0,6.25-10s-4.51,9.51-11.64,13.6a25.85,25.85,0,0,1-25.14.62C119.92,171.62,115.25,166.4,112.17,154.75Z" transform="translate(-8.46 -9.43)"/><path class="cls-10" d="M145,196.21s-4.07,5-7.75,6.37c0,0-5.93-4.46-6.22-5.29,0,0,4.83,4.19,6.19,4.85C137.18,202.14,139.6,201.47,145,196.21Z" transform="translate(-8.46 -9.43)"/><polygon class="cls-33" points="129.1 216.43 155.45 169.07 129.16 220.22 104.33 170.76 129.1 216.43"/><path d="M118.2,120.16s-4,13.63,15.22,12.2,27.93,7.87,29.77,28.52c0,0,8.39-7.19,9.1-16.91s-1.43-22.51-15.22-29.26c-12.19-6-27.45-6.48-35.92,1.76A19.13,19.13,0,0,0,118.2,120.16Z" transform="translate(-8.46 -9.43)"/><path d="M118.2,120.16s-10.34.47-10.22,16c0,0,.24,7,5.59,10.07,0,0,1.9-11.61,8.92-15.88C122.48,130.35,118.08,121.34,118.2,120.16Z" transform="translate(-8.46 -9.43)"/><path class="cls-34" d="M160.94,149a10.28,10.28,0,0,1,3.05-3.56c2.61-1.76,5.84.14,6.62,3a5.32,5.32,0,0,1,.15,1.06c.16,2.57-.27,5.63-2.16,7.55-3,3-5,6.21-7.5,3.29" transform="translate(-8.46 -9.43)"/><path class="cls-14" d="M161.11,160.37a3.59,3.59,0,0,0,3,.3,28.26,28.26,0,0,0,4.48-3.59s-3.58,4.22-5,4.38C163.08,161.51,162.49,161.89,161.11,160.37Z" transform="translate(-8.46 -9.43)"/><path class="cls-14" d="M164.31,153.16s-.75,2.32-1.52,1.91-1.38-3.37.59-5.45,4.26-3.36,5.62,0-3.13,2.57-3.13,2.57A1.51,1.51,0,0,0,164.31,153.16Z" transform="translate(-8.46 -9.43)"/><path class="cls-35" d="M113.56,146.22s4.39-12.81,8.5-14.8a16.38,16.38,0,0,0,10.09,1.77s23.32-2.8,28.8,15.79l-4.68-14.63-13.86-3.74H130.06l-8.33-1.81-6.1,5.55-2.85,9.11Z" transform="translate(-8.46 -9.43)"/><path class="cls-17" d="M123.92,116.09s22.66-13.63,43.67,9.46C167.59,125.56,150.25,106.38,123.92,116.09Z" transform="translate(-8.46 -9.43)"/><path class="cls-17" d="M125.93,121.78s23.8-11.53,42.64,13.35C168.56,135.13,153,114.47,125.93,121.78Z" transform="translate(-8.46 -9.43)"/><path class="cls-17" d="M121,126.24A17.18,17.18,0,0,0,131,129c6-.14,12.64-2.33,19,4,0,0-6.89-5-15-3.17C127.26,131.54,121.09,125.74,121,126.24Z" transform="translate(-8.46 -9.43)"/></g></svg>