<?xml version="1.0" encoding="utf-8"?>
<!-- Generator: Adobe Illustrator 21.1.0, SVG Export Plug-In . SVG Version: 6.00 Build 0)  -->
<svg version="1.1" id="Layer_1" xmlns="http://www.w3.org/2000/svg" xmlns:xlink="http://www.w3.org/1999/xlink" x="0px" y="0px"
	 viewBox="0 0 464.3 390.6" style="enable-background:new 0 0 464.3 390.6;" xml:space="preserve">
<style type="text/css">
	.st0{display:none;fill:#FFFFFF;}
	.st1{display:none;}
	.st2{display:inline;opacity:0.5;fill:#09BAB5;stroke:#000000;stroke-width:0.25;stroke-miterlimit:10;enable-background:new    ;}
	.st3{display:inline;fill:url(#SVGID_1_);}
	.st4{display:inline;fill:#26A69A;}
	.st5{display:inline;fill:none;stroke:#26A69A;stroke-width:35;stroke-miterlimit:10;}
	.st6{display:inline;fill:#7ECECE;}
	.st7{display:inline;fill:none;stroke:#7ECECE;stroke-width:30;stroke-miterlimit:10;}
	.st8{display:inline;fill:none;stroke:#7ECECE;stroke-width:20;stroke-miterlimit:10;}
	.st9{display:inline;fill:#6AB7B5;}
	.st10{display:inline;fill:none;stroke:#D6E8E6;stroke-width:12;stroke-miterlimit:10;}
	.st11{display:inline;fill:none;stroke:#26A69A;stroke-width:20;stroke-miterlimit:10;}
	.st12{display:inline;fill:#26A69A;stroke:#FFFFFF;stroke-miterlimit:10;}
	.st13{display:inline;fill:#D6E8E6;}
	.st14{display:inline;}
	.st15{fill:#7ECECE;}
	.st16{display:inline;fill:#26A69A;stroke:#FFFFFF;stroke-width:14;stroke-miterlimit:10;}
	.st17{display:inline;fill:#FFFFFF;}
	.st18{fill:#FFFFFF;}
	.st19{display:inline;fill:none;stroke:#FFFFFF;stroke-width:40;stroke-miterlimit:10;}
	.st20{fill:none;stroke:#FFFFFF;stroke-miterlimit:10;}
	.st21{fill:none;stroke:#FFFFFF;stroke-width:16;stroke-miterlimit:10;}
</style>
<title>dashboard(ecris)</title>
<rect x="-3.4" y="-5.6" class="st0" width="475" height="406"/>
<g class="st1">
	<rect x="260.2" y="185.3" class="st2" width="65.6" height="164.3"/>
	<rect x="163.3" y="131.4" class="st2" width="70" height="218.2"/>
	<rect x="67.9" y="68.6" class="st2" width="73" height="281"/>
	<rect x="346.5" y="240.5" class="st2" width="62.6" height="109.1"/>
</g>
<g id="Layer_2" class="st1">
</g>
<g class="st1">
	
		<linearGradient id="SVGID_1_" gradientUnits="userSpaceOnUse" x1="72.8747" y1="-867.9059" x2="423" y2="-867.9059" gradientTransform="matrix(1 0 0 -1 0 -661)">
		<stop  offset="0" style="stop-color:#C6E0DC"/>
		<stop  offset="1" style="stop-color:#FFFFFF"/>
	</linearGradient>
	<path class="st3" d="M74.7,304H423c0,0-3.7-38.4-41.5-40c-38.7-1.7-67-72.3-97.7-75.9s-49.8,54.2-73.7,53.2
		c-31-1.4-51-126.1-76.1-130.7s-41.3,10.1-51.7,66.2C67.3,257.7,74.7,304,74.7,304z"/>
</g>
<g class="st1">
	<path class="st4" d="M43.9,354H14.8V72.6c0-3.6,2.8-6.6,6.4-6.6h16.4c3.5,0,6.4,2.9,6.4,6.6L43.9,354L43.9,354z"/>
	<path class="st4" d="M15.8,354v-33h428.1c3.6,0,6.6,3.2,6.6,7.3v18.6c0,4-2.9,7.3-6.6,7.3H15.8V354z"/>
	<path class="st5" d="M404,305.2c0.7-32.2-40.5-30.1-55.9-37.5c-23-11-48-70.1-83.3-67.8c-32.6,2-27.6,40.8-58.5,41.4
		c-49.5,0.9-46.4-119.5-76.5-119.5c-57.8,0-50.5,183.6-50.5,183.6"/>
</g>
<g class="st1">
	<path class="st6" d="M394.2,333.4l-8.4,10.1c-5,6.1-14,6.9-20.1,1.9L241.4,242.2l-1.7-1.4l26.6-32.1l1.7,1.4l124.4,103.1
		C398.4,318.3,399.2,327.3,394.2,333.4z"/>
	<circle class="st7" cx="182.3" cy="157.8" r="111.9"/>
	<path class="st6" d="M247.2,200.5c-14,21.4-38.1,35.5-65.6,35.5c-43.3,0-78.3-35.1-78.3-78.3c0-5.8,0.6-11.4,1.8-16.9
		c8.6,42.6,46.2,74.7,91.3,74.7C215.2,215.5,232.6,210,247.2,200.5z"/>
</g>
<g class="st1">
	<path class="st8" d="M429,198.5v101.6h-44.8l0.7-59.6H80.6L80,300.1H34.6V198.5c0-17.1,13.9-31,31-31H398
		C415.1,167.5,429,181.4,429,198.5z"/>
	<path class="st9" d="M403.7,247.8H59.1v-14.6c0-11.3,9.2-20.5,20.5-20.5h303.6c11.3,0,20.5,9.2,20.5,20.5V247.8z"/>
	<rect x="80.3" y="16" class="st8" width="304.2" height="118.5"/>
	<rect x="80.3" y="240.5" class="st8" width="304.2" height="118.5"/>
</g>
<g class="st1">
	<path class="st4" d="M246.2,315l25.8,14.7c1.8,1,1.6,3.9-0.3,4.9l-29,16.4l-0.6-33.3C242.1,315.5,244.4,314,246.2,315z"/>
	<circle class="st10" cx="216.2" cy="193.8" r="114"/>
	<circle class="st10" cx="214.8" cy="195.9" r="84.8"/>
	<rect x="72" y="15" class="st11" width="286" height="362"/>
	<path class="st4" d="M384.2,140.4l-31.5-18.1c-0.7-0.4-1.7-0.1-2.1,0.7L244.1,308.9c-0.5,0.9-0.3,2,0.6,2.5l31.2,17.8
		c0.8,0.5,1.9,0.1,2.4-0.8l106.4-185.9C385.2,141.8,384.9,140.8,384.2,140.4z M256,310.4l-6.7-3.8l102.6-179.2l6.7,3.8L256,310.4z"
		/>
	<path class="st12" d="M385.2,140.2l-31.1-17.8c-0.9-0.5-1.2-1.6-0.7-2.5L368,94.5c3.3-5.7,10.6-7.7,16.4-4.5l13.4,7.7
		c5.7,3.3,7.7,10.6,4.5,16.4l-14.6,25.5C387.2,140.4,386,140.7,385.2,140.2z"/>
	<path class="st13" d="M220,250.3h-6.4c-22.3,0-40.5-18.2-40.5-40.5V151h87.4v58.8C260.5,232.1,242.3,250.3,220,250.3z"/>
	<rect x="198.1" y="215.2" transform="matrix(0.5 -0.866 0.866 0.5 -38.5371 372.6676)" class="st4" width="210.8" height="9"/>
</g>
<g class="st1">
	<polygon class="st8" points="357,328.7 104.3,328.7 104.3,59.3 308.3,59.3 357,108 	"/>
	<path class="st6" d="M302,169.3H154.7c-6,0-11-4.9-11-11v-2.7c0-6,4.9-11,11-11H302c6.1,0,11,4.9,11,11v2.7
		C313,164.4,308.1,169.3,302,169.3z"/>
	<path class="st6" d="M302,212.7H154.7c-6,0-11-4.9-11-11V199c0-6,4.9-11,11-11H302c6.1,0,11,4.9,11,11v2.7
		C313,207.7,308.1,212.7,302,212.7z"/>
	<path class="st6" d="M271.3,255.3H154.7c-6,0-11-4.9-11-11v-2.7c0-6,4.9-11,11-11h116.7c6,0,11,4.9,11,11v2.7
		C282.3,250.4,277.4,255.3,271.3,255.3z"/>
	<g class="st14">
		<path class="st15" d="M157.3,31.2H40.7v-28h116.7c6.6,0,12,5.4,12,12v4C169.3,25.8,163.9,31.2,157.3,31.2z"/>
		<path class="st15" d="M40.7,120.8V4.2h28v116.7c0,6.6-5.4,12-12,12h-4C46.1,132.8,40.7,127.4,40.7,120.8z"/>
		<path class="st15" d="M306.3,32.2H423v-28H306.3c-6.6,0-12,5.4-12,12v4C294.3,26.8,299.7,32.2,306.3,32.2z"/>
		<path class="st15" d="M423,121.8V5.2h-28v116.7c0,6.6,5.4,12,12,12h4C417.6,133.8,423,128.4,423,121.8z"/>
		<path class="st15" d="M306.3,362.7H423v28H306.3c-6.6,0-12-5.4-12-12v-4C294.3,368.1,299.7,362.7,306.3,362.7z"/>
		<path class="st15" d="M423,273v116.7h-28V273c0-6.6,5.4-12,12-12h4C417.6,261,423,266.4,423,273z"/>
		<path class="st15" d="M156.7,359.8H40v28h116.7c6.6,0,12-5.4,12-12v-4C168.7,365.2,163.3,359.8,156.7,359.8z"/>
		<path class="st15" d="M40,270.2v116.7h28V270.2c0-6.6-5.4-12-12-12h-4C45.4,258.2,40,263.6,40,270.2z"/>
	</g>
</g>
<g class="st1">
	<path class="st4" d="M337.2,331h-233c-18.7,0-34-12.7-34-28.2v-58c0-35.7,35.2-64.7,78-64.7h122.7c43,0,78,29.2,78,64.7v76.5
		C349,326.6,343.7,331,337.2,331z"/>
	<circle class="st4" cx="209.5" cy="85.8" r="81.4"/>
	<circle class="st16" cx="318.9" cy="275.9" r="109.1"/>
	<path class="st17" d="M226.1,282.8V271c0-9.3,7.6-17,17-17h153.6c9.3,0,17,7.6,17,17v11.8c0,9.3-7.6,17-17,17H243.1
		C233.7,299.8,226.1,292.1,226.1,282.8z"/>
	<path class="st17" d="M326.3,366.1H315c-9,0-16.3-7.3-16.3-16.3V202.5c0-9,7.3-16.3,16.3-16.3h11.3c9,0,16.3,7.3,16.3,16.3v147.3
		C342.6,358.8,335.2,366.1,326.3,366.1z"/>
</g>
<g class="st1">
	<g class="st14">
		<circle class="st18" cx="233.3" cy="106.7" r="94.2"/>
	</g>
	<path class="st17" d="M389.6,283.3v37.2c0,33.6-27.5,61.1-61.1,61.1H143.2c-33.6,0-61.1-27.5-61.1-61.1v-37.2
		c0-45.3,37-82.3,82.3-82.3h5.5c16.9,14.2,38.8,22.7,62.6,22.7c23.8,0,45.6-8.5,62.6-22.7h12.2C352.5,200.9,389.6,238,389.6,283.3z"
		/>
</g>
<g class="st1">
	<circle class="st19" cx="231.9" cy="192.7" r="156.3"/>
	<path class="st17" d="M236.2,209.4h-14.5c-7.4,0-13.4-6-13.4-13.4V87.1c0-7.4,6-13.4,13.4-13.4h7c7.4,0,13.4,6,13.4,13.4v116.2
		C242.2,206.7,239.6,209.4,236.2,209.4z"/>
	<path class="st17" d="M212.9,201.3l4.6-13.7c2.3-7,10-10.8,17-8.5l85.4,28.4c7,2.3,10.8,10,8.5,17l-2.2,6.7c-2.3,7-10,10.8-17,8.5
		l-92.4-30.8C213.6,207.9,211.9,204.5,212.9,201.3z"/>
</g>
<g>
	<path class="st20" d="M304.3,69.3"/>
	<g>
		<circle class="st21" cx="147" cy="86.2" r="73.3"/>
	</g>
	<path class="st21" d="M217.9,171.5c-3.6-0.6-7.2-1-10.9-1h-9.5c-13.2,11-37.2,17.6-55.7,17.6c-18.5,0-28.5-6.6-41.7-17.6h-4.3
		c-37.9,0-64.1,28.8-64.1,64.1v29c0,26.1,21.4,47.5,47.5,47.5h90.9v-27.3c0-37.8,35.1-70.1,72.8-70.1
		C243.1,213.7,225.5,196.4,217.9,171.5z"/>
	<g>
		<g>
			<circle class="st21" cx="312.4" cy="149.3" r="73.3"/>
		</g>
		<path class="st21" d="M370,234.6h-9.5c-13.2,11-30.2,17.6-48.7,17.6c-18.5,0-35.5-6.6-48.7-17.6h-4.3c-35.2,0-64.1,28.8-64.1,64.1
			v29c0,26.1,21.4,47.5,47.5,47.5h144.2c26.2,0,47.5-21.4,47.5-47.5v-29C434,263.5,405.2,234.6,370,234.6z M306.1,268 M318.1,365.4"
			/>
	</g>
</g>
<polygon class="st18" points="314,361.5 287,336.5 314.4,270 341,337.5 "/>
<polygon class="st18" points="297.6,263.2 330.4,263.2 314,279.6 "/>
<path class="st18" d="M155.6,283.8c0,3.3,0.2,6.6,0.4,9.8l-6.2,5.5l-27-25l27.4-66.5l13.9,35.2C158.8,254,155.6,268.3,155.6,283.8z"
	/>
<polygon class="st18" points="133.3,202.7 166.2,202.7 149.8,219.2 "/>
</svg>
