<svg xmlns="http://www.w3.org/2000/svg" xmlns:xlink="http://www.w3.org/1999/xlink" viewBox="0 0 471.78 219.36"><defs><style>.cls-1,.cls-3{fill:none;}.cls-1,.cls-5{stroke:#00559f;}.cls-1,.cls-3,.cls-5{stroke-miterlimit:10;}.cls-1{stroke-width:3.5px;}.cls-2{fill:#00559f;}.cls-3{stroke:#062e47;}.cls-3,.cls-5{stroke-width:3px;}.cls-4{fill:#062e47;}.cls-5{fill:#454747;}.cls-6{fill:url(#linear-gradient);}.cls-7{font-size:117.94px;}.cls-7,.cls-8{fill:#272828;font-family:Corbel-Bold, Corbel;font-weight:700;}.cls-8{font-size:114.3px;}.cls-9{fill:url(#linear-gradient-2);}.cls-10{fill:#c4c6c6;}.cls-11{fill:url(#linear-gradient-3);}.cls-12{font-size:19.04px;fill:#fff;font-family:AgencyFB-Reg, Agency FB;}</style><linearGradient id="linear-gradient" x1="203.61" y1="115.87" x2="449.35" y2="146.09" gradientUnits="userSpaceOnUse"><stop offset="0" stop-color="#1490a5"/><stop offset="0.12" stop-color="#1892a7"/><stop offset="0.25" stop-color="#2698ac"/><stop offset="0.38" stop-color="#3ba3b4"/><stop offset="0.52" stop-color="#5ab1c0"/><stop offset="0.66" stop-color="#81c4cf"/><stop offset="0.81" stop-color="#b1dae1"/><stop offset="0.95" stop-color="#e9f5f7"/><stop offset="1" stop-color="#fff"/></linearGradient><linearGradient id="linear-gradient-2" x1="22.92" y1="122.2" x2="218.54" y2="122.2" gradientUnits="userSpaceOnUse"><stop offset="0"/><stop offset="0.01" stop-color="#000405"/><stop offset="0.08" stop-color="#031920"/><stop offset="0.16" stop-color="#052a36"/><stop offset="0.26" stop-color="#063747"/><stop offset="0.38" stop-color="#074052"/><stop offset="0.54" stop-color="#084659"/><stop offset="1" stop-color="#08475b"/></linearGradient><linearGradient id="linear-gradient-3" x1="332.61" y1="335.52" x2="332.61" y2="179.5" gradientUnits="userSpaceOnUse"><stop offset="0" stop-color="#454747"/><stop offset="0.48" stop-color="#434545"/><stop offset="0.66" stop-color="#3d3e3e"/><stop offset="0.78" stop-color="#313333"/><stop offset="0.88" stop-color="#212222"/><stop offset="0.96" stop-color="#0c0c0c"/><stop offset="1"/></linearGradient></defs><title>ecrisLOGO</title><g id="Layer_11" data-name="Layer 11"><path class="cls-1" d="M470.74,69.07" transform="translate(-15.88 -75)"/><path class="cls-1" d="M458.57,86" transform="translate(-15.88 -75)"/><path class="cls-1" d="M431.13,183.28" transform="translate(-15.88 -75)"/><circle class="cls-2" cx="208.21" cy="50.91" r="5.09"/><line class="cls-3" x1="199.94" y1="26.3" x2="199.15" y2="92.35"/><circle class="cls-4" cx="215.82" cy="96.78" r="5.6" transform="translate(100.6 236.43) rotate(-89.32)"/><circle class="cls-4" cx="230.07" cy="80.9" r="5.9" transform="translate(130.55 235) rotate(-89.32)"/><polyline class="cls-3" points="200 44.87 214.19 30.92 214.19 10.72"/><line class="cls-5" x1="208.15" y1="54.83" x2="208.15" y2="84.08"/></g><g id="Layer_8" data-name="Layer 8"><path class="cls-6" d="M168.51,69.46H405.57a9.68,9.68,0,0,1,9.68,9.68v94a9.68,9.68,0,0,1-9.68,9.68H168.51a0,0,0,0,1,0,0V69.46A0,0,0,0,1,168.51,69.46Z"/></g><g id="Layer_5" data-name="Layer 5"><text class="cls-7" transform="translate(339.17 164.6)">S</text></g><g id="Layer_1" data-name="Layer 1"><text class="cls-8" transform="translate(193.68 163.89)">C</text></g><g id="Layer_12" data-name="Layer 12"><text class="cls-7" transform="translate(250.8 164.58)">R</text></g><g id="Layer_4" data-name="Layer 4"><text class="cls-7" transform="translate(315.55 164.58)">I</text></g><g id="Layer_2" data-name="Layer 2"><circle class="cls-9" cx="97.17" cy="122.2" r="97.17"/></g><g id="Layer_6" data-name="Layer 6"><path class="cls-10" d="M110.84,278.48a81.28,81.28,0,1,1,79-100.51L172,182.3a63,63,0,1,0-5.22,43.77,3.89,3.89,0,0,1,5-1.75l9.56,4.25a3.94,3.94,0,0,1,1.9,5.39,81.34,81.34,0,0,1-72.48,44.52Z" transform="translate(-15.88 -75)"/><path class="cls-10" d="M25.62,102.9H173.94a0,0,0,0,1,0,0v13.55a1.69,1.69,0,0,1-1.69,1.69H25.62a0,0,0,0,1,0,0V102.9A0,0,0,0,1,25.62,102.9Z"/></g><g id="Layer_9" data-name="Layer 9"><rect class="cls-11" x="193.44" y="178.19" width="278.34" height="29.21" rx="3.28" ry="3.28"/></g><g id="Layer_10" data-name="Layer 10"><text class="cls-12" transform="translate(199.36 199) scale(0.93 1)">Electronic Civil Registry Information System 2.0</text></g></svg>